<mxfile host="app.diagrams.net" agent="Mozilla/5.0 (Windows NT 10.0; Win64; x64) AppleWebKit/537.36 (KHTML, like Gecko) Chrome/135.0.0.0 Safari/537.36 Edg/135.0.0.0" version="26.2.13">
  <diagram name="Page-1" id="2YBvvXClWsGukQMizWep">
    <mxGraphModel dx="1601" dy="441" grid="1" gridSize="10" guides="1" tooltips="1" connect="1" arrows="1" fold="1" page="1" pageScale="1" pageWidth="850" pageHeight="1100" math="0" shadow="0">
      <root>
        <mxCell id="0" />
        <mxCell id="1" parent="0" />
        <mxCell id="VAy14Np7KbdLVpJw_eZG-14" value=":AccountController" style="shape=umlLifeline;perimeter=lifelinePerimeter;whiteSpace=wrap;html=1;container=0;dropTarget=0;collapsible=0;recursiveResize=0;outlineConnect=0;portConstraint=eastwest;newEdgeStyle={&quot;edgeStyle&quot;:&quot;elbowEdgeStyle&quot;,&quot;elbow&quot;:&quot;vertical&quot;,&quot;curved&quot;:0,&quot;rounded&quot;:0};" parent="1" vertex="1">
          <mxGeometry x="-220" y="1295" width="160" height="945" as="geometry" />
        </mxCell>
        <mxCell id="VAy14Np7KbdLVpJw_eZG-20" value="" style="html=1;points=[];perimeter=orthogonalPerimeter;outlineConnect=0;targetShapes=umlLifeline;portConstraint=eastwest;newEdgeStyle={&quot;edgeStyle&quot;:&quot;elbowEdgeStyle&quot;,&quot;elbow&quot;:&quot;vertical&quot;,&quot;curved&quot;:0,&quot;rounded&quot;:0};" parent="VAy14Np7KbdLVpJw_eZG-14" vertex="1">
          <mxGeometry x="75" y="100" width="10" height="90" as="geometry" />
        </mxCell>
        <mxCell id="VAy14Np7KbdLVpJw_eZG-19" value=":ApplicantList" style="shape=umlLifeline;perimeter=lifelinePerimeter;whiteSpace=wrap;html=1;container=0;dropTarget=0;collapsible=0;recursiveResize=0;outlineConnect=0;portConstraint=eastwest;newEdgeStyle={&quot;edgeStyle&quot;:&quot;elbowEdgeStyle&quot;,&quot;elbow&quot;:&quot;vertical&quot;,&quot;curved&quot;:0,&quot;rounded&quot;:0};" parent="1" vertex="1">
          <mxGeometry x="-50" y="1295" width="160" height="945" as="geometry" />
        </mxCell>
        <mxCell id="rTC_AdGIr1xHkLju1-tS-6" value="" style="html=1;points=[];perimeter=orthogonalPerimeter;outlineConnect=0;targetShapes=umlLifeline;portConstraint=eastwest;newEdgeStyle={&quot;edgeStyle&quot;:&quot;elbowEdgeStyle&quot;,&quot;elbow&quot;:&quot;vertical&quot;,&quot;curved&quot;:0,&quot;rounded&quot;:0};" vertex="1" parent="VAy14Np7KbdLVpJw_eZG-19">
          <mxGeometry x="75" y="205" width="10" height="135" as="geometry" />
        </mxCell>
        <mxCell id="jUNr-BIuptTgkjU3gInY-85" value="" style="html=1;points=[];perimeter=orthogonalPerimeter;outlineConnect=0;targetShapes=umlLifeline;portConstraint=eastwest;newEdgeStyle={&quot;edgeStyle&quot;:&quot;elbowEdgeStyle&quot;,&quot;elbow&quot;:&quot;vertical&quot;,&quot;curved&quot;:0,&quot;rounded&quot;:0};" parent="1" vertex="1">
          <mxGeometry x="-215" y="950" width="10" height="130" as="geometry" />
        </mxCell>
        <mxCell id="jUNr-BIuptTgkjU3gInY-82" value="&#39;press ENTER to return to main page&#39;" style="html=1;verticalAlign=bottom;endArrow=block;edgeStyle=elbowEdgeStyle;elbow=vertical;curved=0;rounded=0;" parent="1" edge="1">
          <mxGeometry relative="1" as="geometry">
            <mxPoint x="-20" y="990" as="sourcePoint" />
            <Array as="points">
              <mxPoint x="-280" y="990" />
            </Array>
            <mxPoint x="-380" y="990" as="targetPoint" />
          </mxGeometry>
        </mxCell>
        <mxCell id="aM9ryv3xv72pqoxQDRHE-1" value="OfficerPage" style="shape=umlLifeline;perimeter=lifelinePerimeter;whiteSpace=wrap;html=1;container=0;dropTarget=0;collapsible=0;recursiveResize=0;outlineConnect=0;portConstraint=eastwest;newEdgeStyle={&quot;edgeStyle&quot;:&quot;elbowEdgeStyle&quot;,&quot;elbow&quot;:&quot;vertical&quot;,&quot;curved&quot;:0,&quot;rounded&quot;:0};" parent="1" vertex="1">
          <mxGeometry x="-440" y="100" width="100" height="1030" as="geometry" />
        </mxCell>
        <mxCell id="aM9ryv3xv72pqoxQDRHE-2" value="" style="html=1;points=[];perimeter=orthogonalPerimeter;outlineConnect=0;targetShapes=umlLifeline;portConstraint=eastwest;newEdgeStyle={&quot;edgeStyle&quot;:&quot;elbowEdgeStyle&quot;,&quot;elbow&quot;:&quot;vertical&quot;,&quot;curved&quot;:0,&quot;rounded&quot;:0};" parent="aM9ryv3xv72pqoxQDRHE-1" vertex="1">
          <mxGeometry x="45" y="70" width="10" height="910" as="geometry" />
        </mxCell>
        <mxCell id="aM9ryv3xv72pqoxQDRHE-5" value="UIController" style="shape=umlLifeline;perimeter=lifelinePerimeter;whiteSpace=wrap;html=1;container=0;dropTarget=0;collapsible=0;recursiveResize=0;outlineConnect=0;portConstraint=eastwest;newEdgeStyle={&quot;edgeStyle&quot;:&quot;elbowEdgeStyle&quot;,&quot;elbow&quot;:&quot;vertical&quot;,&quot;curved&quot;:0,&quot;rounded&quot;:0};" parent="1" vertex="1">
          <mxGeometry x="-260" y="100" width="100" height="1000" as="geometry" />
        </mxCell>
        <mxCell id="aM9ryv3xv72pqoxQDRHE-6" value="" style="html=1;points=[];perimeter=orthogonalPerimeter;outlineConnect=0;targetShapes=umlLifeline;portConstraint=eastwest;newEdgeStyle={&quot;edgeStyle&quot;:&quot;elbowEdgeStyle&quot;,&quot;elbow&quot;:&quot;vertical&quot;,&quot;curved&quot;:0,&quot;rounded&quot;:0};" parent="aM9ryv3xv72pqoxQDRHE-5" vertex="1">
          <mxGeometry x="45" y="80" width="10" height="170" as="geometry" />
        </mxCell>
        <mxCell id="aM9ryv3xv72pqoxQDRHE-7" value="nextLine()" style="html=1;verticalAlign=bottom;endArrow=block;edgeStyle=elbowEdgeStyle;elbow=vertical;curved=0;rounded=0;" parent="1" source="aM9ryv3xv72pqoxQDRHE-2" target="jUNr-BIuptTgkjU3gInY-9" edge="1">
          <mxGeometry relative="1" as="geometry">
            <mxPoint x="-285" y="190" as="sourcePoint" />
            <Array as="points">
              <mxPoint x="-360" y="200" />
              <mxPoint x="-300" y="180" />
            </Array>
          </mxGeometry>
        </mxCell>
        <mxCell id="aM9ryv3xv72pqoxQDRHE-8" value="returns projectID" style="html=1;verticalAlign=bottom;endArrow=open;dashed=1;endSize=8;edgeStyle=elbowEdgeStyle;elbow=horizontal;curved=0;rounded=0;" parent="1" source="jUNr-BIuptTgkjU3gInY-7" target="aM9ryv3xv72pqoxQDRHE-2" edge="1">
          <mxGeometry relative="1" as="geometry">
            <mxPoint x="-285" y="265" as="targetPoint" />
            <Array as="points">
              <mxPoint x="-60" y="360" />
              <mxPoint x="-80" y="360" />
              <mxPoint x="-290" y="340" />
            </Array>
            <mxPoint x="-10" y="340" as="sourcePoint" />
          </mxGeometry>
        </mxCell>
        <mxCell id="aM9ryv3xv72pqoxQDRHE-9" value="Prompts for projectID" style="html=1;verticalAlign=bottom;endArrow=block;edgeStyle=elbowEdgeStyle;elbow=vertical;curved=0;rounded=0;" parent="1" source="jUNr-BIuptTgkjU3gInY-9" edge="1">
          <mxGeometry relative="1" as="geometry">
            <mxPoint x="-305" y="220" as="sourcePoint" />
            <Array as="points">
              <mxPoint x="-70" y="230" />
              <mxPoint x="-290" y="220" />
            </Array>
            <mxPoint x="-530" y="220" as="targetPoint" />
          </mxGeometry>
        </mxCell>
        <mxCell id="aM9ryv3xv72pqoxQDRHE-10" value="returns projectID" style="html=1;verticalAlign=bottom;endArrow=open;dashed=1;endSize=8;edgeStyle=elbowEdgeStyle;elbow=horizontal;curved=0;rounded=0;" parent="1" source="jUNr-BIuptTgkjU3gInY-9" target="aM9ryv3xv72pqoxQDRHE-1" edge="1">
          <mxGeometry x="-0.0018" relative="1" as="geometry">
            <mxPoint x="-214" y="290" as="targetPoint" />
            <Array as="points">
              <mxPoint x="-299" y="290" />
            </Array>
            <mxPoint x="-300" y="280" as="sourcePoint" />
            <mxPoint as="offset" />
          </mxGeometry>
        </mxCell>
        <mxCell id="jUNr-BIuptTgkjU3gInY-1" value="utilis.IDController" style="shape=umlLifeline;perimeter=lifelinePerimeter;whiteSpace=wrap;html=1;container=0;dropTarget=0;collapsible=0;recursiveResize=0;outlineConnect=0;portConstraint=eastwest;newEdgeStyle={&quot;edgeStyle&quot;:&quot;elbowEdgeStyle&quot;,&quot;elbow&quot;:&quot;vertical&quot;,&quot;curved&quot;:0,&quot;rounded&quot;:0};" parent="1" vertex="1">
          <mxGeometry x="660" y="100" width="100" height="1000" as="geometry" />
        </mxCell>
        <mxCell id="jUNr-BIuptTgkjU3gInY-2" value="" style="html=1;points=[];perimeter=orthogonalPerimeter;outlineConnect=0;targetShapes=umlLifeline;portConstraint=eastwest;newEdgeStyle={&quot;edgeStyle&quot;:&quot;elbowEdgeStyle&quot;,&quot;elbow&quot;:&quot;vertical&quot;,&quot;curved&quot;:0,&quot;rounded&quot;:0};" parent="jUNr-BIuptTgkjU3gInY-1" vertex="1">
          <mxGeometry x="45" y="638" width="10" height="50" as="geometry" />
        </mxCell>
        <mxCell id="jUNr-BIuptTgkjU3gInY-3" value="ApplicantList" style="shape=umlLifeline;perimeter=lifelinePerimeter;whiteSpace=wrap;html=1;container=0;dropTarget=0;collapsible=0;recursiveResize=0;outlineConnect=0;portConstraint=eastwest;newEdgeStyle={&quot;edgeStyle&quot;:&quot;elbowEdgeStyle&quot;,&quot;elbow&quot;:&quot;vertical&quot;,&quot;curved&quot;:0,&quot;rounded&quot;:0};" parent="1" vertex="1">
          <mxGeometry x="470" y="105" width="160" height="990" as="geometry" />
        </mxCell>
        <mxCell id="jUNr-BIuptTgkjU3gInY-6" value="" style="html=1;points=[];perimeter=orthogonalPerimeter;outlineConnect=0;targetShapes=umlLifeline;portConstraint=eastwest;newEdgeStyle={&quot;edgeStyle&quot;:&quot;elbowEdgeStyle&quot;,&quot;elbow&quot;:&quot;vertical&quot;,&quot;curved&quot;:0,&quot;rounded&quot;:0};" parent="jUNr-BIuptTgkjU3gInY-3" vertex="1">
          <mxGeometry x="75" y="450" width="10" height="40" as="geometry" />
        </mxCell>
        <mxCell id="jUNr-BIuptTgkjU3gInY-49" value="returns new requestID" style="html=1;verticalAlign=bottom;endArrow=open;dashed=1;endSize=8;edgeStyle=elbowEdgeStyle;elbow=horizontal;curved=0;rounded=0;" parent="jUNr-BIuptTgkjU3gInY-3" source="jUNr-BIuptTgkjU3gInY-1" edge="1">
          <mxGeometry relative="1" as="geometry">
            <mxPoint x="-309.75" y="680" as="targetPoint" />
            <Array as="points">
              <mxPoint x="-214.75" y="680" />
            </Array>
            <mxPoint x="209.5" y="679.9999999999998" as="sourcePoint" />
          </mxGeometry>
        </mxCell>
        <mxCell id="jUNr-BIuptTgkjU3gInY-51" value="return BTOApplication instance" style="html=1;verticalAlign=bottom;endArrow=open;dashed=1;endSize=8;edgeStyle=elbowEdgeStyle;elbow=horizontal;curved=0;rounded=0;" parent="jUNr-BIuptTgkjU3gInY-3" edge="1">
          <mxGeometry relative="1" as="geometry">
            <mxPoint x="-310" y="749.9999999999999" as="targetPoint" />
            <Array as="points">
              <mxPoint x="-215" y="749.9999999999999" />
            </Array>
            <mxPoint x="589.5" y="749.9999999999997" as="sourcePoint" />
          </mxGeometry>
        </mxCell>
        <mxCell id="jUNr-BIuptTgkjU3gInY-56" value="confirm success" style="html=1;verticalAlign=bottom;endArrow=open;dashed=1;endSize=8;edgeStyle=elbowEdgeStyle;elbow=horizontal;curved=0;rounded=0;" parent="jUNr-BIuptTgkjU3gInY-3" edge="1">
          <mxGeometry relative="1" as="geometry">
            <mxPoint x="-310.2164705882351" y="819.9999999999998" as="targetPoint" />
            <Array as="points">
              <mxPoint x="-24.539999999999964" y="820" />
            </Array>
            <mxPoint x="409.5" y="819.9999999999998" as="sourcePoint" />
          </mxGeometry>
        </mxCell>
        <mxCell id="jUNr-BIuptTgkjU3gInY-63" value="add(BTOApplication)" style="html=1;verticalAlign=bottom;endArrow=block;edgeStyle=elbowEdgeStyle;elbow=vertical;curved=0;rounded=0;" parent="jUNr-BIuptTgkjU3gInY-3" source="jUNr-BIuptTgkjU3gInY-14" edge="1">
          <mxGeometry relative="1" as="geometry">
            <mxPoint x="-310" y="780" as="sourcePoint" />
            <Array as="points">
              <mxPoint x="-225" y="780" />
            </Array>
            <mxPoint x="409.5" y="779.9999999999998" as="targetPoint" />
          </mxGeometry>
        </mxCell>
        <mxCell id="jUNr-BIuptTgkjU3gInY-64" value="create new BTOApplication" style="html=1;verticalAlign=bottom;endArrow=block;edgeStyle=elbowEdgeStyle;elbow=vertical;curved=0;rounded=0;" parent="jUNr-BIuptTgkjU3gInY-3" edge="1">
          <mxGeometry relative="1" as="geometry">
            <mxPoint x="-310" y="720" as="sourcePoint" />
            <Array as="points">
              <mxPoint x="-225" y="720" />
            </Array>
            <mxPoint x="589.5" y="720" as="targetPoint" />
          </mxGeometry>
        </mxCell>
        <mxCell id="jUNr-BIuptTgkjU3gInY-65" value="newRequestID()" style="html=1;verticalAlign=bottom;endArrow=block;edgeStyle=elbowEdgeStyle;elbow=vertical;curved=0;rounded=0;" parent="jUNr-BIuptTgkjU3gInY-3" target="jUNr-BIuptTgkjU3gInY-1" edge="1">
          <mxGeometry relative="1" as="geometry">
            <mxPoint x="-310" y="640" as="sourcePoint" />
            <Array as="points">
              <mxPoint x="-225" y="640" />
            </Array>
            <mxPoint x="209.5" y="640" as="targetPoint" />
          </mxGeometry>
        </mxCell>
        <mxCell id="jUNr-BIuptTgkjU3gInY-92" value="" style="html=1;verticalAlign=bottom;endArrow=block;edgeStyle=elbowEdgeStyle;elbow=vertical;curved=0;rounded=0;" parent="jUNr-BIuptTgkjU3gInY-3" target="jUNr-BIuptTgkjU3gInY-14" edge="1">
          <mxGeometry relative="1" as="geometry">
            <mxPoint x="-310" y="780" as="sourcePoint" />
            <Array as="points" />
            <mxPoint x="409.5" y="779.9999999999998" as="targetPoint" />
          </mxGeometry>
        </mxCell>
        <mxCell id="jUNr-BIuptTgkjU3gInY-14" value="" style="html=1;points=[];perimeter=orthogonalPerimeter;outlineConnect=0;targetShapes=umlLifeline;portConstraint=eastwest;newEdgeStyle={&quot;edgeStyle&quot;:&quot;elbowEdgeStyle&quot;,&quot;elbow&quot;:&quot;vertical&quot;,&quot;curved&quot;:0,&quot;rounded&quot;:0};" parent="jUNr-BIuptTgkjU3gInY-3" vertex="1">
          <mxGeometry x="405" y="770" width="10" height="50" as="geometry" />
        </mxCell>
        <mxCell id="jUNr-BIuptTgkjU3gInY-5" value=":Object" style="shape=umlLifeline;perimeter=lifelinePerimeter;whiteSpace=wrap;html=1;container=0;dropTarget=0;collapsible=0;recursiveResize=0;outlineConnect=0;portConstraint=eastwest;newEdgeStyle={&quot;edgeStyle&quot;:&quot;elbowEdgeStyle&quot;,&quot;elbow&quot;:&quot;vertical&quot;,&quot;curved&quot;:0,&quot;rounded&quot;:0};" parent="1" vertex="1">
          <mxGeometry x="300" y="100" width="100" height="1000" as="geometry" />
        </mxCell>
        <mxCell id="jUNr-BIuptTgkjU3gInY-4" value="" style="html=1;points=[];perimeter=orthogonalPerimeter;outlineConnect=0;targetShapes=umlLifeline;portConstraint=eastwest;newEdgeStyle={&quot;edgeStyle&quot;:&quot;elbowEdgeStyle&quot;,&quot;elbow&quot;:&quot;vertical&quot;,&quot;curved&quot;:0,&quot;rounded&quot;:0};" parent="jUNr-BIuptTgkjU3gInY-5" vertex="1">
          <mxGeometry x="50" y="540" width="10" height="55" as="geometry" />
        </mxCell>
        <mxCell id="jUNr-BIuptTgkjU3gInY-7" value="ApplicantController" style="shape=umlLifeline;perimeter=lifelinePerimeter;whiteSpace=wrap;html=1;container=0;dropTarget=0;collapsible=0;recursiveResize=0;outlineConnect=0;portConstraint=eastwest;newEdgeStyle={&quot;edgeStyle&quot;:&quot;elbowEdgeStyle&quot;,&quot;elbow&quot;:&quot;vertical&quot;,&quot;curved&quot;:0,&quot;rounded&quot;:0};" parent="1" vertex="1">
          <mxGeometry x="100" y="100" width="100" height="1000" as="geometry" />
        </mxCell>
        <mxCell id="jUNr-BIuptTgkjU3gInY-8" value="" style="html=1;points=[];perimeter=orthogonalPerimeter;outlineConnect=0;targetShapes=umlLifeline;portConstraint=eastwest;newEdgeStyle={&quot;edgeStyle&quot;:&quot;elbowEdgeStyle&quot;,&quot;elbow&quot;:&quot;vertical&quot;,&quot;curved&quot;:0,&quot;rounded&quot;:0};" parent="jUNr-BIuptTgkjU3gInY-7" vertex="1">
          <mxGeometry x="50" y="230" width="10" height="40" as="geometry" />
        </mxCell>
        <mxCell id="jUNr-BIuptTgkjU3gInY-90" value="" style="html=1;points=[];perimeter=orthogonalPerimeter;outlineConnect=0;targetShapes=umlLifeline;portConstraint=eastwest;newEdgeStyle={&quot;edgeStyle&quot;:&quot;elbowEdgeStyle&quot;,&quot;elbow&quot;:&quot;vertical&quot;,&quot;curved&quot;:0,&quot;rounded&quot;:0};" parent="jUNr-BIuptTgkjU3gInY-7" vertex="1">
          <mxGeometry x="50" y="435" width="10" height="385" as="geometry" />
        </mxCell>
        <mxCell id="jUNr-BIuptTgkjU3gInY-96" value="" style="endArrow=classic;html=1;rounded=0;" parent="jUNr-BIuptTgkjU3gInY-7" source="jUNr-BIuptTgkjU3gInY-90" target="jUNr-BIuptTgkjU3gInY-90" edge="1">
          <mxGeometry width="50" height="50" relative="1" as="geometry">
            <mxPoint x="300" y="670" as="sourcePoint" />
            <mxPoint x="350" y="620" as="targetPoint" />
          </mxGeometry>
        </mxCell>
        <mxCell id="jUNr-BIuptTgkjU3gInY-9" value="IOController" style="shape=umlLifeline;perimeter=lifelinePerimeter;whiteSpace=wrap;html=1;container=0;dropTarget=0;collapsible=0;recursiveResize=0;outlineConnect=0;portConstraint=eastwest;newEdgeStyle={&quot;edgeStyle&quot;:&quot;elbowEdgeStyle&quot;,&quot;elbow&quot;:&quot;vertical&quot;,&quot;curved&quot;:0,&quot;rounded&quot;:0};" parent="1" vertex="1">
          <mxGeometry x="-70" y="100" width="100" height="1010" as="geometry" />
        </mxCell>
        <mxCell id="jUNr-BIuptTgkjU3gInY-87" value="" style="html=1;points=[];perimeter=orthogonalPerimeter;outlineConnect=0;targetShapes=umlLifeline;portConstraint=eastwest;newEdgeStyle={&quot;edgeStyle&quot;:&quot;elbowEdgeStyle&quot;,&quot;elbow&quot;:&quot;vertical&quot;,&quot;curved&quot;:0,&quot;rounded&quot;:0};" parent="jUNr-BIuptTgkjU3gInY-9" vertex="1">
          <mxGeometry x="45" y="920" width="10" height="40" as="geometry" />
        </mxCell>
        <mxCell id="jUNr-BIuptTgkjU3gInY-10" value="" style="html=1;points=[];perimeter=orthogonalPerimeter;outlineConnect=0;targetShapes=umlLifeline;portConstraint=eastwest;newEdgeStyle={&quot;edgeStyle&quot;:&quot;elbowEdgeStyle&quot;,&quot;elbow&quot;:&quot;vertical&quot;,&quot;curved&quot;:0,&quot;rounded&quot;:0};" parent="jUNr-BIuptTgkjU3gInY-9" vertex="1">
          <mxGeometry x="45" y="80" width="10" height="180" as="geometry" />
        </mxCell>
        <mxCell id="jUNr-BIuptTgkjU3gInY-89" value="" style="html=1;points=[];perimeter=orthogonalPerimeter;outlineConnect=0;targetShapes=umlLifeline;portConstraint=eastwest;newEdgeStyle={&quot;edgeStyle&quot;:&quot;elbowEdgeStyle&quot;,&quot;elbow&quot;:&quot;vertical&quot;,&quot;curved&quot;:0,&quot;rounded&quot;:0};" parent="jUNr-BIuptTgkjU3gInY-9" vertex="1">
          <mxGeometry x="45" y="290" width="10" height="110" as="geometry" />
        </mxCell>
        <mxCell id="jUNr-BIuptTgkjU3gInY-11" value="BTOApplication" style="shape=umlLifeline;perimeter=lifelinePerimeter;whiteSpace=wrap;html=1;container=0;dropTarget=0;collapsible=0;recursiveResize=0;outlineConnect=0;portConstraint=eastwest;newEdgeStyle={&quot;edgeStyle&quot;:&quot;elbowEdgeStyle&quot;,&quot;elbow&quot;:&quot;vertical&quot;,&quot;curved&quot;:0,&quot;rounded&quot;:0};" parent="1" vertex="1">
          <mxGeometry x="1020" y="100" width="100" height="1000" as="geometry" />
        </mxCell>
        <mxCell id="jUNr-BIuptTgkjU3gInY-12" value="" style="html=1;points=[];perimeter=orthogonalPerimeter;outlineConnect=0;targetShapes=umlLifeline;portConstraint=eastwest;newEdgeStyle={&quot;edgeStyle&quot;:&quot;elbowEdgeStyle&quot;,&quot;elbow&quot;:&quot;vertical&quot;,&quot;curved&quot;:0,&quot;rounded&quot;:0};" parent="jUNr-BIuptTgkjU3gInY-11" vertex="1">
          <mxGeometry x="45" y="705" width="10" height="70" as="geometry" />
        </mxCell>
        <mxCell id="jUNr-BIuptTgkjU3gInY-13" value="RequestList" style="shape=umlLifeline;perimeter=lifelinePerimeter;whiteSpace=wrap;html=1;container=0;dropTarget=0;collapsible=0;recursiveResize=0;outlineConnect=0;portConstraint=eastwest;newEdgeStyle={&quot;edgeStyle&quot;:&quot;elbowEdgeStyle&quot;,&quot;elbow&quot;:&quot;vertical&quot;,&quot;curved&quot;:0,&quot;rounded&quot;:0};" parent="1" vertex="1">
          <mxGeometry x="840" y="100" width="100" height="1000" as="geometry" />
        </mxCell>
        <mxCell id="jUNr-BIuptTgkjU3gInY-75" value="" style="edgeStyle=orthogonalEdgeStyle;rounded=0;orthogonalLoop=1;jettySize=auto;html=1;" parent="1" source="jUNr-BIuptTgkjU3gInY-15" target="aM9ryv3xv72pqoxQDRHE-1" edge="1">
          <mxGeometry relative="1" as="geometry">
            <mxPoint x="-570" y="360" as="targetPoint" />
            <Array as="points">
              <mxPoint x="-545" y="200" />
            </Array>
          </mxGeometry>
        </mxCell>
        <mxCell id="jUNr-BIuptTgkjU3gInY-15" value="Officer" style="shape=umlActor;verticalLabelPosition=bottom;verticalAlign=top;html=1;outlineConnect=0;" parent="1" vertex="1">
          <mxGeometry x="-560" y="100" width="30" height="60" as="geometry" />
        </mxCell>
        <mxCell id="jUNr-BIuptTgkjU3gInY-16" value="Officer" style="shape=umlActor;verticalLabelPosition=bottom;verticalAlign=top;html=1;outlineConnect=0;" parent="1" vertex="1">
          <mxGeometry x="-560" y="1110" width="30" height="60" as="geometry" />
        </mxCell>
        <mxCell id="jUNr-BIuptTgkjU3gInY-29" value="ProjectList" style="rounded=0;whiteSpace=wrap;html=1;" parent="1" vertex="1">
          <mxGeometry x="300" y="100" width="100" height="40" as="geometry" />
        </mxCell>
        <mxCell id="jUNr-BIuptTgkjU3gInY-30" value="RequestList" style="rounded=0;whiteSpace=wrap;html=1;" parent="1" vertex="1">
          <mxGeometry x="840" y="1100" width="100" height="40" as="geometry" />
        </mxCell>
        <mxCell id="jUNr-BIuptTgkjU3gInY-31" value="utilis.IDController" style="rounded=0;whiteSpace=wrap;html=1;" parent="1" vertex="1">
          <mxGeometry x="660" y="1100" width="100" height="40" as="geometry" />
        </mxCell>
        <mxCell id="jUNr-BIuptTgkjU3gInY-32" value="ApplicantList" style="rounded=0;whiteSpace=wrap;html=1;" parent="1" vertex="1">
          <mxGeometry x="490" y="1100" width="100" height="40" as="geometry" />
        </mxCell>
        <mxCell id="jUNr-BIuptTgkjU3gInY-33" value="ProjectList" style="rounded=0;whiteSpace=wrap;html=1;" parent="1" vertex="1">
          <mxGeometry x="300" y="1100" width="100" height="40" as="geometry" />
        </mxCell>
        <mxCell id="jUNr-BIuptTgkjU3gInY-34" value="ApplicantController" style="rounded=0;whiteSpace=wrap;html=1;" parent="1" vertex="1">
          <mxGeometry x="120" y="1100" width="100" height="40" as="geometry" />
        </mxCell>
        <mxCell id="jUNr-BIuptTgkjU3gInY-35" value="IOController" style="rounded=0;whiteSpace=wrap;html=1;" parent="1" vertex="1">
          <mxGeometry x="-70" y="1100" width="100" height="40" as="geometry" />
        </mxCell>
        <mxCell id="jUNr-BIuptTgkjU3gInY-36" value="UIController" style="rounded=0;whiteSpace=wrap;html=1;" parent="1" vertex="1">
          <mxGeometry x="-260" y="1100" width="100" height="40" as="geometry" />
        </mxCell>
        <mxCell id="jUNr-BIuptTgkjU3gInY-37" value="OfficerPage" style="rounded=0;whiteSpace=wrap;html=1;" parent="1" vertex="1">
          <mxGeometry x="-440" y="1100" width="100" height="40" as="geometry" />
        </mxCell>
        <mxCell id="jUNr-BIuptTgkjU3gInY-38" value="BTOApplication" style="rounded=0;whiteSpace=wrap;html=1;" parent="1" vertex="1">
          <mxGeometry x="1020" y="1100" width="100" height="40" as="geometry" />
        </mxCell>
        <mxCell id="aM9ryv3xv72pqoxQDRHE-3" value="" style="html=1;verticalAlign=bottom;startArrow=oval;endArrow=block;startSize=8;edgeStyle=elbowEdgeStyle;elbow=vertical;curved=0;rounded=0;exitX=0.5;exitY=0.5;exitDx=0;exitDy=0;exitPerimeter=0;" parent="1" source="jUNr-BIuptTgkjU3gInY-16" edge="1">
          <mxGeometry x="0.8657" y="-10" relative="1" as="geometry">
            <mxPoint x="-540" y="140" as="sourcePoint" />
            <mxPoint x="-545" y="1100" as="targetPoint" />
            <Array as="points">
              <mxPoint x="-455" y="180" />
              <mxPoint x="-475" y="190" />
            </Array>
            <mxPoint as="offset" />
          </mxGeometry>
        </mxCell>
        <mxCell id="jUNr-BIuptTgkjU3gInY-45" value="enters projectID" style="html=1;verticalAlign=bottom;endArrow=block;edgeStyle=elbowEdgeStyle;elbow=vertical;curved=0;rounded=0;" parent="1" target="jUNr-BIuptTgkjU3gInY-9" edge="1">
          <mxGeometry relative="1" as="geometry">
            <mxPoint x="-540" y="260" as="sourcePoint" />
            <Array as="points">
              <mxPoint x="-455" y="260" />
            </Array>
            <mxPoint x="-175" y="260" as="targetPoint" />
          </mxGeometry>
        </mxCell>
        <mxCell id="jUNr-BIuptTgkjU3gInY-46" value="returns applicant" style="html=1;verticalAlign=bottom;endArrow=open;dashed=1;endSize=8;edgeStyle=elbowEdgeStyle;elbow=horizontal;curved=0;rounded=0;" parent="1" source="jUNr-BIuptTgkjU3gInY-3" target="jUNr-BIuptTgkjU3gInY-7" edge="1">
          <mxGeometry relative="1" as="geometry">
            <mxPoint x="180" y="600" as="targetPoint" />
            <Array as="points">
              <mxPoint x="460" y="580" />
              <mxPoint x="210" y="600" />
            </Array>
            <mxPoint x="529.5" y="599.9999999999998" as="sourcePoint" />
          </mxGeometry>
        </mxCell>
        <mxCell id="jUNr-BIuptTgkjU3gInY-48" value="returns flat type option" style="html=1;verticalAlign=bottom;endArrow=open;dashed=1;endSize=8;edgeStyle=elbowEdgeStyle;elbow=horizontal;curved=0;rounded=0;" parent="1" edge="1">
          <mxGeometry relative="1" as="geometry">
            <mxPoint x="-389.75" y="500" as="targetPoint" />
            <Array as="points">
              <mxPoint x="-294.75" y="500" />
            </Array>
            <mxPoint x="-30.25" y="500" as="sourcePoint" />
          </mxGeometry>
        </mxCell>
        <mxCell id="jUNr-BIuptTgkjU3gInY-53" value="returns input" style="html=1;verticalAlign=bottom;endArrow=open;dashed=1;endSize=8;edgeStyle=elbowEdgeStyle;elbow=horizontal;curved=0;rounded=0;" parent="1" edge="1">
          <mxGeometry relative="1" as="geometry">
            <mxPoint x="-200" y="1060" as="targetPoint" />
            <Array as="points">
              <mxPoint x="-94.31999999999994" y="1060" />
            </Array>
            <mxPoint x="-19.569999999999936" y="1060" as="sourcePoint" />
          </mxGeometry>
        </mxCell>
        <mxCell id="jUNr-BIuptTgkjU3gInY-55" value="returns success message" style="html=1;verticalAlign=bottom;endArrow=open;dashed=1;endSize=8;edgeStyle=elbowEdgeStyle;elbow=horizontal;curved=0;rounded=0;" parent="1" target="aM9ryv3xv72pqoxQDRHE-1" edge="1">
          <mxGeometry relative="1" as="geometry">
            <mxPoint x="-190" y="920" as="targetPoint" />
            <Array as="points">
              <mxPoint x="-95" y="920" />
            </Array>
            <mxPoint x="-20.25" y="920" as="sourcePoint" />
          </mxGeometry>
        </mxCell>
        <mxCell id="jUNr-BIuptTgkjU3gInY-57" value="getByID(ProjectID)" style="html=1;verticalAlign=bottom;endArrow=block;edgeStyle=elbowEdgeStyle;elbow=vertical;curved=0;rounded=0;" parent="1" target="jUNr-BIuptTgkjU3gInY-7" edge="1">
          <mxGeometry relative="1" as="geometry">
            <mxPoint x="-390" y="330" as="sourcePoint" />
            <Array as="points">
              <mxPoint x="-305" y="330" />
            </Array>
            <mxPoint x="130" y="330" as="targetPoint" />
          </mxGeometry>
        </mxCell>
        <mxCell id="jUNr-BIuptTgkjU3gInY-58" value="nextInt()" style="html=1;verticalAlign=bottom;endArrow=block;edgeStyle=elbowEdgeStyle;elbow=vertical;curved=0;rounded=0;" parent="1" edge="1">
          <mxGeometry relative="1" as="geometry">
            <mxPoint x="-392.5" y="390" as="sourcePoint" />
            <Array as="points">
              <mxPoint x="-307.5" y="390" />
            </Array>
            <mxPoint x="-27.5" y="390" as="targetPoint" />
          </mxGeometry>
        </mxCell>
        <mxCell id="jUNr-BIuptTgkjU3gInY-59" value="Prompts for flat type" style="html=1;verticalAlign=bottom;endArrow=block;edgeStyle=elbowEdgeStyle;elbow=vertical;curved=0;rounded=0;" parent="1" source="jUNr-BIuptTgkjU3gInY-9" edge="1">
          <mxGeometry relative="1" as="geometry">
            <mxPoint x="-10" y="420" as="sourcePoint" />
            <Array as="points">
              <mxPoint x="-280" y="420" />
            </Array>
            <mxPoint x="-530" y="420" as="targetPoint" />
          </mxGeometry>
        </mxCell>
        <mxCell id="jUNr-BIuptTgkjU3gInY-60" value="enters flat type option" style="html=1;verticalAlign=bottom;endArrow=block;edgeStyle=elbowEdgeStyle;elbow=vertical;curved=0;rounded=0;" parent="1" edge="1">
          <mxGeometry relative="1" as="geometry">
            <mxPoint x="-530" y="460" as="sourcePoint" />
            <Array as="points">
              <mxPoint x="-445" y="460" />
            </Array>
            <mxPoint x="-30" y="460" as="targetPoint" />
          </mxGeometry>
        </mxCell>
        <mxCell id="jUNr-BIuptTgkjU3gInY-61" value="applyProject(projectID, flatType)" style="html=1;verticalAlign=bottom;endArrow=block;edgeStyle=elbowEdgeStyle;elbow=vertical;curved=0;rounded=0;" parent="1" edge="1">
          <mxGeometry relative="1" as="geometry">
            <mxPoint x="-390" y="540" as="sourcePoint" />
            <Array as="points">
              <mxPoint x="-390" y="540" />
            </Array>
            <mxPoint x="169.5" y="539.9999999999998" as="targetPoint" />
          </mxGeometry>
        </mxCell>
        <mxCell id="jUNr-BIuptTgkjU3gInY-62" value="presses ENTER" style="html=1;verticalAlign=bottom;endArrow=block;edgeStyle=elbowEdgeStyle;elbow=vertical;curved=0;rounded=0;" parent="1" source="aM9ryv3xv72pqoxQDRHE-1" edge="1">
          <mxGeometry relative="1" as="geometry">
            <mxPoint x="-380" y="1030" as="sourcePoint" />
            <Array as="points">
              <mxPoint x="-70" y="1040" />
              <mxPoint x="-295" y="1030" />
            </Array>
            <mxPoint x="-20" y="1040" as="targetPoint" />
          </mxGeometry>
        </mxCell>
        <mxCell id="jUNr-BIuptTgkjU3gInY-66" value="getbyID(userID)" style="html=1;verticalAlign=bottom;endArrow=block;edgeStyle=elbowEdgeStyle;elbow=vertical;curved=0;rounded=0;" parent="1" source="jUNr-BIuptTgkjU3gInY-7" target="jUNr-BIuptTgkjU3gInY-3" edge="1">
          <mxGeometry relative="1" as="geometry">
            <mxPoint x="-30" y="570" as="sourcePoint" />
            <Array as="points">
              <mxPoint x="250" y="550" />
              <mxPoint x="660" y="560" />
            </Array>
            <mxPoint x="529.5" y="569.9999999999998" as="targetPoint" />
          </mxGeometry>
        </mxCell>
        <mxCell id="jUNr-BIuptTgkjU3gInY-67" value="getbyID(projectID)" style="html=1;verticalAlign=bottom;endArrow=block;edgeStyle=elbowEdgeStyle;elbow=vertical;curved=0;rounded=0;" parent="1" source="jUNr-BIuptTgkjU3gInY-90" edge="1">
          <mxGeometry relative="1" as="geometry">
            <mxPoint x="180.25" y="670" as="sourcePoint" />
            <Array as="points">
              <mxPoint x="340.5" y="640" />
            </Array>
            <mxPoint x="360" y="640" as="targetPoint" />
          </mxGeometry>
        </mxCell>
        <mxCell id="jUNr-BIuptTgkjU3gInY-68" value="returns project" style="html=1;verticalAlign=bottom;endArrow=open;dashed=1;endSize=8;edgeStyle=elbowEdgeStyle;elbow=horizontal;curved=0;rounded=0;exitX=0.409;exitY=0.726;exitDx=0;exitDy=0;exitPerimeter=0;" parent="1" edge="1">
          <mxGeometry relative="1" as="geometry">
            <mxPoint x="175.25" y="660.07" as="targetPoint" />
            <Array as="points">
              <mxPoint x="320" y="640.07" />
            </Array>
            <mxPoint x="354.0899999999997" y="659.9999999999999" as="sourcePoint" />
          </mxGeometry>
        </mxCell>
        <mxCell id="jUNr-BIuptTgkjU3gInY-79" value="selects applyProject()" style="text;html=1;align=center;verticalAlign=middle;resizable=0;points=[];autosize=1;strokeColor=none;fillColor=none;" parent="1" vertex="1">
          <mxGeometry x="-530" y="170" width="140" height="30" as="geometry" />
        </mxCell>
        <mxCell id="jUNr-BIuptTgkjU3gInY-80" value="loopOfficer()" style="html=1;verticalAlign=bottom;endArrow=block;edgeStyle=elbowEdgeStyle;elbow=vertical;curved=0;rounded=0;" parent="1" target="aM9ryv3xv72pqoxQDRHE-5" edge="1">
          <mxGeometry relative="1" as="geometry">
            <mxPoint x="-389.75" y="950" as="sourcePoint" />
            <Array as="points">
              <mxPoint x="-304.75" y="950" />
            </Array>
            <mxPoint x="-220" y="950" as="targetPoint" />
          </mxGeometry>
        </mxCell>
        <mxCell id="jUNr-BIuptTgkjU3gInY-81" value="nextLine()" style="html=1;verticalAlign=bottom;endArrow=block;edgeStyle=elbowEdgeStyle;elbow=vertical;curved=0;rounded=0;" parent="1" source="jUNr-BIuptTgkjU3gInY-85" target="jUNr-BIuptTgkjU3gInY-9" edge="1">
          <mxGeometry relative="1" as="geometry">
            <mxPoint x="-210.5526315789475" y="980" as="sourcePoint" />
            <Array as="points">
              <mxPoint x="-70" y="970" />
              <mxPoint x="-50" y="960" />
            </Array>
            <mxPoint x="-0.5" y="969.9999999999998" as="targetPoint" />
          </mxGeometry>
        </mxCell>
        <mxCell id="jUNr-BIuptTgkjU3gInY-83" value="allOptions()" style="html=1;verticalAlign=bottom;endArrow=block;edgeStyle=elbowEdgeStyle;elbow=vertical;curved=0;rounded=0;" parent="1" target="aM9ryv3xv72pqoxQDRHE-1" edge="1">
          <mxGeometry relative="1" as="geometry">
            <mxPoint x="-210" y="1080" as="sourcePoint" />
            <Array as="points" />
            <mxPoint x="-490" y="1080" as="targetPoint" />
          </mxGeometry>
        </mxCell>
        <mxCell id="jUNr-BIuptTgkjU3gInY-86" value="" style="html=1;verticalAlign=bottom;endArrow=block;edgeStyle=elbowEdgeStyle;elbow=vertical;curved=0;rounded=0;" parent="1" target="jUNr-BIuptTgkjU3gInY-85" edge="1">
          <mxGeometry relative="1" as="geometry">
            <mxPoint x="-210.5526315789475" y="980" as="sourcePoint" />
            <Array as="points" />
            <mxPoint x="-20" y="970" as="targetPoint" />
          </mxGeometry>
        </mxCell>
        <mxCell id="jUNr-BIuptTgkjU3gInY-97" value="check if flat type available" style="text;html=1;align=center;verticalAlign=middle;resizable=0;points=[];autosize=1;strokeColor=none;fillColor=none;" parent="1" vertex="1">
          <mxGeometry x="200" y="708" width="160" height="30" as="geometry" />
        </mxCell>
        <mxCell id="jUNr-BIuptTgkjU3gInY-98" value="Check eliglibility and flat type" style="text;html=1;align=center;verticalAlign=middle;resizable=0;points=[];autosize=1;strokeColor=#3700CC;fillColor=#6a00ff;fontColor=#ffffff;" parent="1" vertex="1">
          <mxGeometry x="90" y="670" width="180" height="30" as="geometry" />
        </mxCell>
        <mxCell id="jUNr-BIuptTgkjU3gInY-100" value="Check if already applied" style="text;html=1;align=center;verticalAlign=middle;resizable=0;points=[];autosize=1;strokeColor=#3700CC;fillColor=#6a00ff;fontColor=#ffffff;" parent="1" vertex="1">
          <mxGeometry x="90" y="590" width="150" height="30" as="geometry" />
        </mxCell>
        <mxCell id="VAy14Np7KbdLVpJw_eZG-1" value="applicant: Applicant" style="shape=umlLifeline;perimeter=lifelinePerimeter;whiteSpace=wrap;html=1;container=0;dropTarget=0;collapsible=0;recursiveResize=0;outlineConnect=0;portConstraint=eastwest;newEdgeStyle={&quot;edgeStyle&quot;:&quot;elbowEdgeStyle&quot;,&quot;elbow&quot;:&quot;vertical&quot;,&quot;curved&quot;:0,&quot;rounded&quot;:0};" parent="1" vertex="1">
          <mxGeometry x="130" y="1295" width="140" height="945" as="geometry" />
        </mxCell>
        <mxCell id="VAy14Np7KbdLVpJw_eZG-3" value="Officer Application of Project" style="shape=umlFrame;whiteSpace=wrap;html=1;pointerEvents=0;width=180;height=30;" parent="1" vertex="1">
          <mxGeometry x="-580" y="1250" width="1610" height="1010" as="geometry" />
        </mxCell>
        <mxCell id="VAy14Np7KbdLVpJw_eZG-4" value="" style="edgeStyle=orthogonalEdgeStyle;rounded=0;orthogonalLoop=1;jettySize=auto;html=1;" parent="1" target="VAy14Np7KbdLVpJw_eZG-6" edge="1">
          <mxGeometry relative="1" as="geometry">
            <mxPoint x="-495" y="1370" as="sourcePoint" />
            <Array as="points">
              <mxPoint x="-495" y="1420" />
              <mxPoint x="-495" y="1420" />
            </Array>
          </mxGeometry>
        </mxCell>
        <mxCell id="VAy14Np7KbdLVpJw_eZG-5" value="Officer" style="shape=umlActor;verticalLabelPosition=bottom;verticalAlign=top;html=1;outlineConnect=0;" parent="1" vertex="1">
          <mxGeometry x="-510" y="1290" width="30" height="60" as="geometry" />
        </mxCell>
        <mxCell id="VAy14Np7KbdLVpJw_eZG-6" value="" style="html=1;points=[[0,0,0,0,5],[0,1,0,0,-5],[1,0,0,0,5],[1,1,0,0,-5]];perimeter=orthogonalPerimeter;outlineConnect=0;targetShapes=umlLifeline;portConstraint=eastwest;newEdgeStyle={&quot;curved&quot;:0,&quot;rounded&quot;:0};" parent="1" vertex="1">
          <mxGeometry x="-500" y="1390" width="10" height="850" as="geometry" />
        </mxCell>
        <mxCell id="VAy14Np7KbdLVpJw_eZG-8" value=":OfficerPage" style="shape=umlLifeline;perimeter=lifelinePerimeter;whiteSpace=wrap;html=1;container=0;dropTarget=0;collapsible=0;recursiveResize=0;outlineConnect=0;portConstraint=eastwest;newEdgeStyle={&quot;edgeStyle&quot;:&quot;elbowEdgeStyle&quot;,&quot;elbow&quot;:&quot;vertical&quot;,&quot;curved&quot;:0,&quot;rounded&quot;:0};" parent="1" vertex="1">
          <mxGeometry x="-380" y="1295" width="140" height="945" as="geometry" />
        </mxCell>
        <mxCell id="VAy14Np7KbdLVpJw_eZG-9" value="" style="html=1;points=[];perimeter=orthogonalPerimeter;outlineConnect=0;targetShapes=umlLifeline;portConstraint=eastwest;newEdgeStyle={&quot;edgeStyle&quot;:&quot;elbowEdgeStyle&quot;,&quot;elbow&quot;:&quot;vertical&quot;,&quot;curved&quot;:0,&quot;rounded&quot;:0};" parent="VAy14Np7KbdLVpJw_eZG-8" vertex="1">
          <mxGeometry x="65" y="80" width="10" height="870" as="geometry" />
        </mxCell>
        <mxCell id="VAy14Np7KbdLVpJw_eZG-10" value="selects applyProject()" style="html=1;verticalAlign=bottom;endArrow=block;edgeStyle=elbowEdgeStyle;elbow=vertical;curved=0;rounded=0;" parent="1" edge="1">
          <mxGeometry x="0.0057" relative="1" as="geometry">
            <mxPoint x="-490" y="1420" as="sourcePoint" />
            <Array as="points">
              <mxPoint x="-435" y="1420" />
            </Array>
            <mxPoint x="-315" y="1420" as="targetPoint" />
            <mxPoint as="offset" />
          </mxGeometry>
        </mxCell>
        <mxCell id="VAy14Np7KbdLVpJw_eZG-17" value=":UIController" style="shape=umlLifeline;perimeter=lifelinePerimeter;whiteSpace=wrap;html=1;container=0;dropTarget=0;collapsible=0;recursiveResize=0;outlineConnect=0;portConstraint=eastwest;newEdgeStyle={&quot;edgeStyle&quot;:&quot;elbowEdgeStyle&quot;,&quot;elbow&quot;:&quot;vertical&quot;,&quot;curved&quot;:0,&quot;rounded&quot;:0};" parent="1" vertex="1">
          <mxGeometry x="300" y="1295" width="125" height="945" as="geometry" />
        </mxCell>
        <mxCell id="rTC_AdGIr1xHkLju1-tS-19" value="" style="html=1;points=[];perimeter=orthogonalPerimeter;outlineConnect=0;targetShapes=umlLifeline;portConstraint=eastwest;newEdgeStyle={&quot;edgeStyle&quot;:&quot;elbowEdgeStyle&quot;,&quot;elbow&quot;:&quot;vertical&quot;,&quot;curved&quot;:0,&quot;rounded&quot;:0};" vertex="1" parent="VAy14Np7KbdLVpJw_eZG-17">
          <mxGeometry x="57.5" y="418" width="10" height="55" as="geometry" />
        </mxCell>
        <mxCell id="rTC_AdGIr1xHkLju1-tS-64" value="" style="html=1;points=[];perimeter=orthogonalPerimeter;outlineConnect=0;targetShapes=umlLifeline;portConstraint=eastwest;newEdgeStyle={&quot;edgeStyle&quot;:&quot;elbowEdgeStyle&quot;,&quot;elbow&quot;:&quot;vertical&quot;,&quot;curved&quot;:0,&quot;rounded&quot;:0};" vertex="1" parent="VAy14Np7KbdLVpJw_eZG-17">
          <mxGeometry x="58.75" y="875" width="10" height="55" as="geometry" />
        </mxCell>
        <mxCell id="rTC_AdGIr1xHkLju1-tS-65" value="loopOfficer()" style="html=1;verticalAlign=bottom;endArrow=block;edgeStyle=elbowEdgeStyle;elbow=horizontal;curved=0;rounded=0;labelBackgroundColor=default;" edge="1" parent="VAy14Np7KbdLVpJw_eZG-17" target="rTC_AdGIr1xHkLju1-tS-64">
          <mxGeometry relative="1" as="geometry">
            <mxPoint x="-603.75" y="892" as="sourcePoint" />
            <Array as="points">
              <mxPoint x="-501.25" y="892" />
              <mxPoint x="-181.25" y="872" />
              <mxPoint x="-526.25" y="882" />
            </Array>
            <mxPoint x="51.25" y="892" as="targetPoint" />
            <mxPoint as="offset" />
          </mxGeometry>
        </mxCell>
        <mxCell id="rTC_AdGIr1xHkLju1-tS-66" style="edgeStyle=elbowEdgeStyle;rounded=0;orthogonalLoop=1;jettySize=auto;html=1;elbow=horizontal;curved=0;" edge="1" parent="VAy14Np7KbdLVpJw_eZG-17">
          <mxGeometry relative="1" as="geometry">
            <mxPoint x="58.75" y="918.9983870967744" as="sourcePoint" />
            <mxPoint x="-603.75" y="918.9983870967744" as="targetPoint" />
          </mxGeometry>
        </mxCell>
        <mxCell id="rTC_AdGIr1xHkLju1-tS-67" value="allOption()" style="edgeLabel;html=1;align=center;verticalAlign=middle;resizable=0;points=[];" vertex="1" connectable="0" parent="rTC_AdGIr1xHkLju1-tS-66">
          <mxGeometry x="-0.0216" y="-1" relative="1" as="geometry">
            <mxPoint x="-8" y="-8" as="offset" />
          </mxGeometry>
        </mxCell>
        <mxCell id="VAy14Np7KbdLVpJw_eZG-21" value="getUserID()" style="html=1;verticalAlign=bottom;endArrow=block;edgeStyle=elbowEdgeStyle;elbow=vertical;curved=0;rounded=0;" parent="1" edge="1" target="VAy14Np7KbdLVpJw_eZG-20">
          <mxGeometry relative="1" as="geometry">
            <mxPoint x="-305" y="1420" as="sourcePoint" />
            <Array as="points">
              <mxPoint x="-210" y="1420" />
              <mxPoint x="110" y="1400" />
              <mxPoint x="-235" y="1410" />
            </Array>
            <mxPoint x="25" y="1420" as="targetPoint" />
            <mxPoint as="offset" />
          </mxGeometry>
        </mxCell>
        <mxCell id="VAy14Np7KbdLVpJw_eZG-23" value=":IOController" style="shape=umlLifeline;perimeter=lifelinePerimeter;whiteSpace=wrap;html=1;container=0;dropTarget=0;collapsible=0;recursiveResize=0;outlineConnect=0;portConstraint=eastwest;newEdgeStyle={&quot;edgeStyle&quot;:&quot;elbowEdgeStyle&quot;,&quot;elbow&quot;:&quot;vertical&quot;,&quot;curved&quot;:0,&quot;rounded&quot;:0};" parent="1" vertex="1">
          <mxGeometry x="460" y="1297.5" width="160" height="942.5" as="geometry" />
        </mxCell>
        <mxCell id="rTC_AdGIr1xHkLju1-tS-27" value="" style="html=1;points=[];perimeter=orthogonalPerimeter;outlineConnect=0;targetShapes=umlLifeline;portConstraint=eastwest;newEdgeStyle={&quot;edgeStyle&quot;:&quot;elbowEdgeStyle&quot;,&quot;elbow&quot;:&quot;vertical&quot;,&quot;curved&quot;:0,&quot;rounded&quot;:0};" vertex="1" parent="VAy14Np7KbdLVpJw_eZG-23">
          <mxGeometry x="75" y="492.5" width="10" height="55" as="geometry" />
        </mxCell>
        <mxCell id="VAy14Np7KbdLVpJw_eZG-40" value=":ApplicantRequestController" style="shape=umlLifeline;perimeter=lifelinePerimeter;whiteSpace=wrap;html=1;container=0;dropTarget=0;collapsible=0;recursiveResize=0;outlineConnect=0;portConstraint=eastwest;newEdgeStyle={&quot;edgeStyle&quot;:&quot;elbowEdgeStyle&quot;,&quot;elbow&quot;:&quot;vertical&quot;,&quot;curved&quot;:0,&quot;rounded&quot;:0};" parent="1" vertex="1">
          <mxGeometry x="810" y="1295" width="160" height="955" as="geometry" />
        </mxCell>
        <mxCell id="rTC_AdGIr1xHkLju1-tS-54" value="" style="html=1;points=[];perimeter=orthogonalPerimeter;outlineConnect=0;targetShapes=umlLifeline;portConstraint=eastwest;newEdgeStyle={&quot;edgeStyle&quot;:&quot;elbowEdgeStyle&quot;,&quot;elbow&quot;:&quot;vertical&quot;,&quot;curved&quot;:0,&quot;rounded&quot;:0};" vertex="1" parent="VAy14Np7KbdLVpJw_eZG-40">
          <mxGeometry x="75" y="788" width="10" height="55" as="geometry" />
        </mxCell>
        <mxCell id="VAy14Np7KbdLVpJw_eZG-56" value="ProjectList" style="shape=umlLifeline;perimeter=lifelinePerimeter;whiteSpace=wrap;html=1;container=0;dropTarget=0;collapsible=0;recursiveResize=0;outlineConnect=0;portConstraint=eastwest;newEdgeStyle={&quot;edgeStyle&quot;:&quot;elbowEdgeStyle&quot;,&quot;elbow&quot;:&quot;vertical&quot;,&quot;curved&quot;:0,&quot;rounded&quot;:0};" parent="1" vertex="1">
          <mxGeometry x="640" y="1296.25" width="160" height="943.75" as="geometry" />
        </mxCell>
        <mxCell id="rTC_AdGIr1xHkLju1-tS-34" value="" style="html=1;points=[];perimeter=orthogonalPerimeter;outlineConnect=0;targetShapes=umlLifeline;portConstraint=eastwest;newEdgeStyle={&quot;edgeStyle&quot;:&quot;elbowEdgeStyle&quot;,&quot;elbow&quot;:&quot;vertical&quot;,&quot;curved&quot;:0,&quot;rounded&quot;:0};" vertex="1" parent="VAy14Np7KbdLVpJw_eZG-56">
          <mxGeometry x="75" y="558.13" width="10" height="126.25" as="geometry" />
        </mxCell>
        <mxCell id="rTC_AdGIr1xHkLju1-tS-4" value="" style="html=1;verticalAlign=bottom;labelBackgroundColor=none;endArrow=open;endFill=0;dashed=1;rounded=0;" edge="1" parent="1">
          <mxGeometry width="160" relative="1" as="geometry">
            <mxPoint x="-145" y="1450" as="sourcePoint" />
            <mxPoint x="-305" y="1450" as="targetPoint" />
          </mxGeometry>
        </mxCell>
        <mxCell id="rTC_AdGIr1xHkLju1-tS-5" value="userID" style="edgeLabel;html=1;align=center;verticalAlign=middle;resizable=0;points=[];" vertex="1" connectable="0" parent="rTC_AdGIr1xHkLju1-tS-4">
          <mxGeometry x="0.1177" y="1" relative="1" as="geometry">
            <mxPoint x="14" y="-11" as="offset" />
          </mxGeometry>
        </mxCell>
        <mxCell id="rTC_AdGIr1xHkLju1-tS-7" value="getInstance()" style="html=1;verticalAlign=bottom;endArrow=block;edgeStyle=elbowEdgeStyle;elbow=horizontal;curved=0;rounded=0;" edge="1" parent="1" source="VAy14Np7KbdLVpJw_eZG-9" target="rTC_AdGIr1xHkLju1-tS-6">
          <mxGeometry relative="1" as="geometry">
            <mxPoint x="-250" y="1520" as="sourcePoint" />
            <Array as="points">
              <mxPoint x="-205" y="1520" />
              <mxPoint x="115" y="1500" />
              <mxPoint x="-230" y="1510" />
            </Array>
            <mxPoint x="-220" y="1520" as="targetPoint" />
            <mxPoint as="offset" />
          </mxGeometry>
        </mxCell>
        <mxCell id="rTC_AdGIr1xHkLju1-tS-8" value="" style="html=1;verticalAlign=bottom;labelBackgroundColor=none;endArrow=open;endFill=0;dashed=1;rounded=0;" edge="1" parent="1">
          <mxGeometry width="160" relative="1" as="geometry">
            <mxPoint x="25" y="1560" as="sourcePoint" />
            <mxPoint x="-305" y="1560" as="targetPoint" />
          </mxGeometry>
        </mxCell>
        <mxCell id="rTC_AdGIr1xHkLju1-tS-9" value="Instance of Applicant list" style="edgeLabel;html=1;align=center;verticalAlign=middle;resizable=0;points=[];" vertex="1" connectable="0" parent="rTC_AdGIr1xHkLju1-tS-8">
          <mxGeometry x="0.1177" y="1" relative="1" as="geometry">
            <mxPoint x="14" y="-11" as="offset" />
          </mxGeometry>
        </mxCell>
        <mxCell id="rTC_AdGIr1xHkLju1-tS-10" value="getByID(userID)" style="html=1;verticalAlign=bottom;endArrow=block;edgeStyle=elbowEdgeStyle;elbow=horizontal;curved=0;rounded=0;" edge="1" parent="1">
          <mxGeometry relative="1" as="geometry">
            <mxPoint x="-305" y="1590" as="sourcePoint" />
            <Array as="points">
              <mxPoint x="-205" y="1590" />
              <mxPoint x="115" y="1570" />
              <mxPoint x="-230" y="1580" />
            </Array>
            <mxPoint x="25" y="1590" as="targetPoint" />
            <mxPoint as="offset" />
          </mxGeometry>
        </mxCell>
        <mxCell id="rTC_AdGIr1xHkLju1-tS-12" value="" style="html=1;verticalAlign=bottom;labelBackgroundColor=none;endArrow=open;endFill=0;dashed=1;rounded=0;" edge="1" parent="1">
          <mxGeometry width="160" relative="1" as="geometry">
            <mxPoint x="25" y="1620" as="sourcePoint" />
            <mxPoint x="-305" y="1620" as="targetPoint" />
          </mxGeometry>
        </mxCell>
        <mxCell id="rTC_AdGIr1xHkLju1-tS-13" value="applicant" style="edgeLabel;html=1;align=center;verticalAlign=middle;resizable=0;points=[];" vertex="1" connectable="0" parent="rTC_AdGIr1xHkLju1-tS-12">
          <mxGeometry x="0.1177" y="1" relative="1" as="geometry">
            <mxPoint x="14" y="-11" as="offset" />
          </mxGeometry>
        </mxCell>
        <mxCell id="rTC_AdGIr1xHkLju1-tS-14" value="alt" style="shape=umlFrame;whiteSpace=wrap;html=1;pointerEvents=0;" vertex="1" parent="1">
          <mxGeometry x="-355" y="1690" width="775" height="90" as="geometry" />
        </mxCell>
        <mxCell id="rTC_AdGIr1xHkLju1-tS-16" value="[Already has a project]" style="text;html=1;align=center;verticalAlign=middle;resizable=0;points=[];autosize=1;strokeColor=none;fillColor=none;labelBackgroundColor=default;" vertex="1" parent="1">
          <mxGeometry x="-300" y="1690" width="140" height="30" as="geometry" />
        </mxCell>
        <mxCell id="rTC_AdGIr1xHkLju1-tS-17" value="" style="html=1;points=[];perimeter=orthogonalPerimeter;outlineConnect=0;targetShapes=umlLifeline;portConstraint=eastwest;newEdgeStyle={&quot;edgeStyle&quot;:&quot;elbowEdgeStyle&quot;,&quot;elbow&quot;:&quot;vertical&quot;,&quot;curved&quot;:0,&quot;rounded&quot;:0};" vertex="1" parent="1">
          <mxGeometry x="195" y="1640" width="10" height="40" as="geometry" />
        </mxCell>
        <mxCell id="rTC_AdGIr1xHkLju1-tS-18" value="getProject()" style="html=1;verticalAlign=bottom;endArrow=block;edgeStyle=elbowEdgeStyle;elbow=horizontal;curved=0;rounded=0;" edge="1" parent="1" target="rTC_AdGIr1xHkLju1-tS-17">
          <mxGeometry relative="1" as="geometry">
            <mxPoint x="-305" y="1660" as="sourcePoint" />
            <Array as="points">
              <mxPoint x="-205" y="1660" />
              <mxPoint x="115" y="1640" />
              <mxPoint x="-230" y="1650" />
            </Array>
            <mxPoint x="25" y="1660" as="targetPoint" />
            <mxPoint as="offset" />
          </mxGeometry>
        </mxCell>
        <mxCell id="rTC_AdGIr1xHkLju1-tS-20" value="loopOfficer()" style="html=1;verticalAlign=bottom;endArrow=block;edgeStyle=elbowEdgeStyle;elbow=horizontal;curved=0;rounded=0;" edge="1" parent="1" source="VAy14Np7KbdLVpJw_eZG-9" target="rTC_AdGIr1xHkLju1-tS-19">
          <mxGeometry relative="1" as="geometry">
            <mxPoint x="-300" y="1730" as="sourcePoint" />
            <Array as="points">
              <mxPoint x="-202.5" y="1730" />
              <mxPoint x="117.5" y="1710" />
              <mxPoint x="-227.5" y="1720" />
            </Array>
            <mxPoint x="350" y="1730" as="targetPoint" />
            <mxPoint as="offset" />
          </mxGeometry>
        </mxCell>
        <mxCell id="rTC_AdGIr1xHkLju1-tS-23" style="edgeStyle=elbowEdgeStyle;rounded=0;orthogonalLoop=1;jettySize=auto;html=1;elbow=horizontal;curved=0;" edge="1" parent="1">
          <mxGeometry relative="1" as="geometry">
            <mxPoint x="357.5" y="1756.9983870967742" as="sourcePoint" />
            <mxPoint x="-305" y="1756.9983870967742" as="targetPoint" />
          </mxGeometry>
        </mxCell>
        <mxCell id="rTC_AdGIr1xHkLju1-tS-25" value="allOption()" style="edgeLabel;html=1;align=center;verticalAlign=middle;resizable=0;points=[];" vertex="1" connectable="0" parent="rTC_AdGIr1xHkLju1-tS-23">
          <mxGeometry x="-0.0216" y="-1" relative="1" as="geometry">
            <mxPoint x="-8" y="-8" as="offset" />
          </mxGeometry>
        </mxCell>
        <mxCell id="rTC_AdGIr1xHkLju1-tS-26" value="prompts projectID" style="html=1;verticalAlign=bottom;endArrow=block;edgeStyle=elbowEdgeStyle;elbow=vertical;curved=0;rounded=0;" edge="1" parent="1">
          <mxGeometry x="0.0105" relative="1" as="geometry">
            <mxPoint x="-490" y="1809" as="sourcePoint" />
            <Array as="points">
              <mxPoint x="-435" y="1809" />
            </Array>
            <mxPoint x="-315" y="1809" as="targetPoint" />
            <mxPoint as="offset" />
          </mxGeometry>
        </mxCell>
        <mxCell id="rTC_AdGIr1xHkLju1-tS-29" value="nextLine()" style="html=1;verticalAlign=bottom;endArrow=block;edgeStyle=elbowEdgeStyle;elbow=vertical;curved=0;rounded=0;" edge="1" parent="1">
          <mxGeometry relative="1" as="geometry">
            <mxPoint x="-305" y="1809" as="sourcePoint" />
            <Array as="points">
              <mxPoint x="-120" y="1809" />
              <mxPoint x="200" y="1789" />
              <mxPoint x="-145" y="1799" />
            </Array>
            <mxPoint x="535" y="1809" as="targetPoint" />
            <mxPoint as="offset" />
          </mxGeometry>
        </mxCell>
        <mxCell id="rTC_AdGIr1xHkLju1-tS-32" value="" style="html=1;verticalAlign=bottom;labelBackgroundColor=none;endArrow=open;endFill=0;dashed=1;rounded=0;" edge="1" parent="1">
          <mxGeometry width="160" relative="1" as="geometry">
            <mxPoint x="535" y="1835.5" as="sourcePoint" />
            <mxPoint x="-305" y="1835.5" as="targetPoint" />
          </mxGeometry>
        </mxCell>
        <mxCell id="rTC_AdGIr1xHkLju1-tS-33" value="projectID" style="edgeLabel;html=1;align=center;verticalAlign=middle;resizable=0;points=[];" vertex="1" connectable="0" parent="rTC_AdGIr1xHkLju1-tS-32">
          <mxGeometry x="0.1177" y="1" relative="1" as="geometry">
            <mxPoint x="45" y="-11" as="offset" />
          </mxGeometry>
        </mxCell>
        <mxCell id="rTC_AdGIr1xHkLju1-tS-35" value="getInstance()" style="html=1;verticalAlign=bottom;endArrow=block;edgeStyle=elbowEdgeStyle;elbow=horizontal;curved=0;rounded=0;" edge="1" parent="1" target="rTC_AdGIr1xHkLju1-tS-34">
          <mxGeometry relative="1" as="geometry">
            <mxPoint x="-305" y="1870" as="sourcePoint" />
            <Array as="points">
              <mxPoint x="-205" y="1870" />
              <mxPoint x="115" y="1850" />
              <mxPoint x="-230" y="1860" />
            </Array>
            <mxPoint x="25" y="1870" as="targetPoint" />
            <mxPoint as="offset" />
          </mxGeometry>
        </mxCell>
        <mxCell id="rTC_AdGIr1xHkLju1-tS-36" value="" style="html=1;verticalAlign=bottom;labelBackgroundColor=none;endArrow=open;endFill=0;dashed=1;rounded=0;" edge="1" parent="1">
          <mxGeometry width="160" relative="1" as="geometry">
            <mxPoint x="715.0000000000005" y="1905" as="sourcePoint" />
            <mxPoint x="-305" y="1905" as="targetPoint" />
          </mxGeometry>
        </mxCell>
        <mxCell id="rTC_AdGIr1xHkLju1-tS-37" value="Instance of Projectlist" style="edgeLabel;html=1;align=center;verticalAlign=middle;resizable=0;points=[];" vertex="1" connectable="0" parent="rTC_AdGIr1xHkLju1-tS-36">
          <mxGeometry x="0.1177" y="1" relative="1" as="geometry">
            <mxPoint x="55" y="-11" as="offset" />
          </mxGeometry>
        </mxCell>
        <mxCell id="rTC_AdGIr1xHkLju1-tS-38" value="getByID(userID)" style="html=1;verticalAlign=bottom;endArrow=block;edgeStyle=elbowEdgeStyle;elbow=horizontal;curved=0;rounded=0;" edge="1" parent="1" target="rTC_AdGIr1xHkLju1-tS-34">
          <mxGeometry relative="1" as="geometry">
            <mxPoint x="-305" y="1940" as="sourcePoint" />
            <Array as="points">
              <mxPoint x="-205" y="1940" />
              <mxPoint x="115" y="1920" />
              <mxPoint x="-230" y="1930" />
            </Array>
            <mxPoint x="25" y="1940" as="targetPoint" />
            <mxPoint as="offset" />
          </mxGeometry>
        </mxCell>
        <mxCell id="rTC_AdGIr1xHkLju1-tS-39" value="" style="html=1;verticalAlign=bottom;labelBackgroundColor=none;endArrow=open;endFill=0;dashed=1;rounded=0;" edge="1" parent="1" source="rTC_AdGIr1xHkLju1-tS-34">
          <mxGeometry width="160" relative="1" as="geometry">
            <mxPoint x="25" y="1970" as="sourcePoint" />
            <mxPoint x="-305" y="1970" as="targetPoint" />
          </mxGeometry>
        </mxCell>
        <mxCell id="rTC_AdGIr1xHkLju1-tS-40" value="Project" style="edgeLabel;html=1;align=center;verticalAlign=middle;resizable=0;points=[];" vertex="1" connectable="0" parent="rTC_AdGIr1xHkLju1-tS-39">
          <mxGeometry x="0.1177" y="1" relative="1" as="geometry">
            <mxPoint x="55" y="-11" as="offset" />
          </mxGeometry>
        </mxCell>
        <mxCell id="rTC_AdGIr1xHkLju1-tS-42" value="alt" style="shape=umlFrame;whiteSpace=wrap;html=1;pointerEvents=0;" vertex="1" parent="1">
          <mxGeometry x="-350" y="1990" width="1320" height="160" as="geometry" />
        </mxCell>
        <mxCell id="rTC_AdGIr1xHkLju1-tS-43" value="[ProjectID is exist and user is eligible to apply the project]" style="text;html=1;align=center;verticalAlign=middle;resizable=0;points=[];autosize=1;strokeColor=none;fillColor=none;labelBackgroundColor=default;" vertex="1" parent="1">
          <mxGeometry x="-300" y="1990" width="330" height="30" as="geometry" />
        </mxCell>
        <mxCell id="rTC_AdGIr1xHkLju1-tS-44" value="" style="html=1;points=[];perimeter=orthogonalPerimeter;outlineConnect=0;targetShapes=umlLifeline;portConstraint=eastwest;newEdgeStyle={&quot;edgeStyle&quot;:&quot;elbowEdgeStyle&quot;,&quot;elbow&quot;:&quot;vertical&quot;,&quot;curved&quot;:0,&quot;rounded&quot;:0};" vertex="1" parent="1">
          <mxGeometry x="535" y="2020" width="10" height="55" as="geometry" />
        </mxCell>
        <mxCell id="rTC_AdGIr1xHkLju1-tS-49" value="nextInt()" style="html=1;verticalAlign=bottom;endArrow=block;edgeStyle=elbowEdgeStyle;elbow=horizontal;curved=0;rounded=0;" edge="1" parent="1" source="VAy14Np7KbdLVpJw_eZG-9" target="rTC_AdGIr1xHkLju1-tS-44">
          <mxGeometry relative="1" as="geometry">
            <mxPoint x="-303" y="2040" as="sourcePoint" />
            <Array as="points">
              <mxPoint x="-200.5" y="2040" />
              <mxPoint x="119.5" y="2020" />
              <mxPoint x="-225.5" y="2030" />
            </Array>
            <mxPoint x="360" y="2040" as="targetPoint" />
            <mxPoint as="offset" />
          </mxGeometry>
        </mxCell>
        <mxCell id="rTC_AdGIr1xHkLju1-tS-50" value="" style="html=1;verticalAlign=bottom;labelBackgroundColor=none;endArrow=open;endFill=0;dashed=1;rounded=0;" edge="1" parent="1">
          <mxGeometry width="160" relative="1" as="geometry">
            <mxPoint x="535" y="2060" as="sourcePoint" />
            <mxPoint x="-305" y="2060" as="targetPoint" />
          </mxGeometry>
        </mxCell>
        <mxCell id="rTC_AdGIr1xHkLju1-tS-51" value="applyFlat" style="edgeLabel;html=1;align=center;verticalAlign=middle;resizable=0;points=[];" vertex="1" connectable="0" parent="rTC_AdGIr1xHkLju1-tS-50">
          <mxGeometry x="0.1177" y="1" relative="1" as="geometry">
            <mxPoint x="45" y="-11" as="offset" />
          </mxGeometry>
        </mxCell>
        <mxCell id="rTC_AdGIr1xHkLju1-tS-52" value="prompts flat type" style="html=1;verticalAlign=bottom;endArrow=block;edgeStyle=elbowEdgeStyle;elbow=vertical;curved=0;rounded=0;" edge="1" parent="1">
          <mxGeometry x="0.0105" relative="1" as="geometry">
            <mxPoint x="-490" y="2039.47" as="sourcePoint" />
            <Array as="points">
              <mxPoint x="-435" y="2039.47" />
            </Array>
            <mxPoint x="-315" y="2039.47" as="targetPoint" />
            <mxPoint as="offset" />
          </mxGeometry>
        </mxCell>
        <mxCell id="rTC_AdGIr1xHkLju1-tS-53" value="applyProject(projectID, applyFlat)" style="html=1;verticalAlign=bottom;endArrow=block;edgeStyle=elbowEdgeStyle;elbow=horizontal;curved=0;rounded=0;" edge="1" parent="1" target="rTC_AdGIr1xHkLju1-tS-54">
          <mxGeometry relative="1" as="geometry">
            <mxPoint x="-305" y="2110" as="sourcePoint" />
            <Array as="points">
              <mxPoint x="-200.5" y="2110" />
              <mxPoint x="119.5" y="2090" />
              <mxPoint x="-225.5" y="2100" />
            </Array>
            <mxPoint x="535" y="2110" as="targetPoint" />
            <mxPoint as="offset" />
          </mxGeometry>
        </mxCell>
        <mxCell id="rTC_AdGIr1xHkLju1-tS-127" value=":AccountController" style="shape=umlLifeline;perimeter=lifelinePerimeter;whiteSpace=wrap;html=1;container=0;dropTarget=0;collapsible=0;recursiveResize=0;outlineConnect=0;portConstraint=eastwest;newEdgeStyle={&quot;edgeStyle&quot;:&quot;elbowEdgeStyle&quot;,&quot;elbow&quot;:&quot;vertical&quot;,&quot;curved&quot;:0,&quot;rounded&quot;:0};" vertex="1" parent="1">
          <mxGeometry x="-220" y="2365" width="160" height="945" as="geometry" />
        </mxCell>
        <mxCell id="rTC_AdGIr1xHkLju1-tS-128" value="" style="html=1;points=[];perimeter=orthogonalPerimeter;outlineConnect=0;targetShapes=umlLifeline;portConstraint=eastwest;newEdgeStyle={&quot;edgeStyle&quot;:&quot;elbowEdgeStyle&quot;,&quot;elbow&quot;:&quot;vertical&quot;,&quot;curved&quot;:0,&quot;rounded&quot;:0};" vertex="1" parent="rTC_AdGIr1xHkLju1-tS-127">
          <mxGeometry x="75" y="100" width="10" height="90" as="geometry" />
        </mxCell>
        <mxCell id="rTC_AdGIr1xHkLju1-tS-129" value=":ApplicantList" style="shape=umlLifeline;perimeter=lifelinePerimeter;whiteSpace=wrap;html=1;container=0;dropTarget=0;collapsible=0;recursiveResize=0;outlineConnect=0;portConstraint=eastwest;newEdgeStyle={&quot;edgeStyle&quot;:&quot;elbowEdgeStyle&quot;,&quot;elbow&quot;:&quot;vertical&quot;,&quot;curved&quot;:0,&quot;rounded&quot;:0};" vertex="1" parent="1">
          <mxGeometry x="-50" y="2365" width="160" height="945" as="geometry" />
        </mxCell>
        <mxCell id="rTC_AdGIr1xHkLju1-tS-130" value="" style="html=1;points=[];perimeter=orthogonalPerimeter;outlineConnect=0;targetShapes=umlLifeline;portConstraint=eastwest;newEdgeStyle={&quot;edgeStyle&quot;:&quot;elbowEdgeStyle&quot;,&quot;elbow&quot;:&quot;vertical&quot;,&quot;curved&quot;:0,&quot;rounded&quot;:0};" vertex="1" parent="rTC_AdGIr1xHkLju1-tS-129">
          <mxGeometry x="75" y="205" width="10" height="135" as="geometry" />
        </mxCell>
        <mxCell id="rTC_AdGIr1xHkLju1-tS-131" value="applicant: Applicant" style="shape=umlLifeline;perimeter=lifelinePerimeter;whiteSpace=wrap;html=1;container=0;dropTarget=0;collapsible=0;recursiveResize=0;outlineConnect=0;portConstraint=eastwest;newEdgeStyle={&quot;edgeStyle&quot;:&quot;elbowEdgeStyle&quot;,&quot;elbow&quot;:&quot;vertical&quot;,&quot;curved&quot;:0,&quot;rounded&quot;:0};" vertex="1" parent="1">
          <mxGeometry x="130" y="2365" width="140" height="945" as="geometry" />
        </mxCell>
        <mxCell id="rTC_AdGIr1xHkLju1-tS-132" value="Officer Application of Project" style="shape=umlFrame;whiteSpace=wrap;html=1;pointerEvents=0;width=180;height=30;" vertex="1" parent="1">
          <mxGeometry x="-580" y="2320" width="1610" height="1010" as="geometry" />
        </mxCell>
        <mxCell id="rTC_AdGIr1xHkLju1-tS-133" value="" style="edgeStyle=orthogonalEdgeStyle;rounded=0;orthogonalLoop=1;jettySize=auto;html=1;" edge="1" parent="1" target="rTC_AdGIr1xHkLju1-tS-135">
          <mxGeometry relative="1" as="geometry">
            <mxPoint x="-495" y="2440" as="sourcePoint" />
            <Array as="points">
              <mxPoint x="-495" y="2490" />
              <mxPoint x="-495" y="2490" />
            </Array>
          </mxGeometry>
        </mxCell>
        <mxCell id="rTC_AdGIr1xHkLju1-tS-134" value="Officer" style="shape=umlActor;verticalLabelPosition=bottom;verticalAlign=top;html=1;outlineConnect=0;" vertex="1" parent="1">
          <mxGeometry x="-510" y="2360" width="30" height="60" as="geometry" />
        </mxCell>
        <mxCell id="rTC_AdGIr1xHkLju1-tS-135" value="" style="html=1;points=[[0,0,0,0,5],[0,1,0,0,-5],[1,0,0,0,5],[1,1,0,0,-5]];perimeter=orthogonalPerimeter;outlineConnect=0;targetShapes=umlLifeline;portConstraint=eastwest;newEdgeStyle={&quot;curved&quot;:0,&quot;rounded&quot;:0};" vertex="1" parent="1">
          <mxGeometry x="-500" y="2460" width="10" height="850" as="geometry" />
        </mxCell>
        <mxCell id="rTC_AdGIr1xHkLju1-tS-136" value=":OfficerPage" style="shape=umlLifeline;perimeter=lifelinePerimeter;whiteSpace=wrap;html=1;container=0;dropTarget=0;collapsible=0;recursiveResize=0;outlineConnect=0;portConstraint=eastwest;newEdgeStyle={&quot;edgeStyle&quot;:&quot;elbowEdgeStyle&quot;,&quot;elbow&quot;:&quot;vertical&quot;,&quot;curved&quot;:0,&quot;rounded&quot;:0};" vertex="1" parent="1">
          <mxGeometry x="-380" y="2365" width="140" height="945" as="geometry" />
        </mxCell>
        <mxCell id="rTC_AdGIr1xHkLju1-tS-137" value="" style="html=1;points=[];perimeter=orthogonalPerimeter;outlineConnect=0;targetShapes=umlLifeline;portConstraint=eastwest;newEdgeStyle={&quot;edgeStyle&quot;:&quot;elbowEdgeStyle&quot;,&quot;elbow&quot;:&quot;vertical&quot;,&quot;curved&quot;:0,&quot;rounded&quot;:0};" vertex="1" parent="rTC_AdGIr1xHkLju1-tS-136">
          <mxGeometry x="65" y="80" width="10" height="870" as="geometry" />
        </mxCell>
        <mxCell id="rTC_AdGIr1xHkLju1-tS-138" value="selects applyProject()" style="html=1;verticalAlign=bottom;endArrow=block;edgeStyle=elbowEdgeStyle;elbow=vertical;curved=0;rounded=0;" edge="1" parent="1">
          <mxGeometry x="0.0057" relative="1" as="geometry">
            <mxPoint x="-490" y="2490" as="sourcePoint" />
            <Array as="points">
              <mxPoint x="-435" y="2490" />
            </Array>
            <mxPoint x="-315" y="2490" as="targetPoint" />
            <mxPoint as="offset" />
          </mxGeometry>
        </mxCell>
        <mxCell id="rTC_AdGIr1xHkLju1-tS-139" value=":UIController" style="shape=umlLifeline;perimeter=lifelinePerimeter;whiteSpace=wrap;html=1;container=0;dropTarget=0;collapsible=0;recursiveResize=0;outlineConnect=0;portConstraint=eastwest;newEdgeStyle={&quot;edgeStyle&quot;:&quot;elbowEdgeStyle&quot;,&quot;elbow&quot;:&quot;vertical&quot;,&quot;curved&quot;:0,&quot;rounded&quot;:0};" vertex="1" parent="1">
          <mxGeometry x="300" y="2365" width="125" height="945" as="geometry" />
        </mxCell>
        <mxCell id="rTC_AdGIr1xHkLju1-tS-140" value="" style="html=1;points=[];perimeter=orthogonalPerimeter;outlineConnect=0;targetShapes=umlLifeline;portConstraint=eastwest;newEdgeStyle={&quot;edgeStyle&quot;:&quot;elbowEdgeStyle&quot;,&quot;elbow&quot;:&quot;vertical&quot;,&quot;curved&quot;:0,&quot;rounded&quot;:0};" vertex="1" parent="rTC_AdGIr1xHkLju1-tS-139">
          <mxGeometry x="57.5" y="418" width="10" height="55" as="geometry" />
        </mxCell>
        <mxCell id="rTC_AdGIr1xHkLju1-tS-141" value="" style="html=1;points=[];perimeter=orthogonalPerimeter;outlineConnect=0;targetShapes=umlLifeline;portConstraint=eastwest;newEdgeStyle={&quot;edgeStyle&quot;:&quot;elbowEdgeStyle&quot;,&quot;elbow&quot;:&quot;vertical&quot;,&quot;curved&quot;:0,&quot;rounded&quot;:0};" vertex="1" parent="rTC_AdGIr1xHkLju1-tS-139">
          <mxGeometry x="58.75" y="875" width="10" height="55" as="geometry" />
        </mxCell>
        <mxCell id="rTC_AdGIr1xHkLju1-tS-142" value="loopOfficer()" style="html=1;verticalAlign=bottom;endArrow=block;edgeStyle=elbowEdgeStyle;elbow=horizontal;curved=0;rounded=0;labelBackgroundColor=default;" edge="1" parent="rTC_AdGIr1xHkLju1-tS-139" target="rTC_AdGIr1xHkLju1-tS-141">
          <mxGeometry relative="1" as="geometry">
            <mxPoint x="-603.75" y="892" as="sourcePoint" />
            <Array as="points">
              <mxPoint x="-501.25" y="892" />
              <mxPoint x="-181.25" y="872" />
              <mxPoint x="-526.25" y="882" />
            </Array>
            <mxPoint x="51.25" y="892" as="targetPoint" />
            <mxPoint as="offset" />
          </mxGeometry>
        </mxCell>
        <mxCell id="rTC_AdGIr1xHkLju1-tS-143" style="edgeStyle=elbowEdgeStyle;rounded=0;orthogonalLoop=1;jettySize=auto;html=1;elbow=horizontal;curved=0;" edge="1" parent="rTC_AdGIr1xHkLju1-tS-139">
          <mxGeometry relative="1" as="geometry">
            <mxPoint x="58.75" y="918.9983870967744" as="sourcePoint" />
            <mxPoint x="-603.75" y="918.9983870967744" as="targetPoint" />
          </mxGeometry>
        </mxCell>
        <mxCell id="rTC_AdGIr1xHkLju1-tS-144" value="allOption()" style="edgeLabel;html=1;align=center;verticalAlign=middle;resizable=0;points=[];" vertex="1" connectable="0" parent="rTC_AdGIr1xHkLju1-tS-143">
          <mxGeometry x="-0.0216" y="-1" relative="1" as="geometry">
            <mxPoint x="-8" y="-8" as="offset" />
          </mxGeometry>
        </mxCell>
        <mxCell id="rTC_AdGIr1xHkLju1-tS-145" value="getUserID()" style="html=1;verticalAlign=bottom;endArrow=block;edgeStyle=elbowEdgeStyle;elbow=vertical;curved=0;rounded=0;" edge="1" parent="1" target="rTC_AdGIr1xHkLju1-tS-128">
          <mxGeometry relative="1" as="geometry">
            <mxPoint x="-305" y="2490" as="sourcePoint" />
            <Array as="points">
              <mxPoint x="-210" y="2490" />
              <mxPoint x="110" y="2470" />
              <mxPoint x="-235" y="2480" />
            </Array>
            <mxPoint x="25" y="2490" as="targetPoint" />
            <mxPoint as="offset" />
          </mxGeometry>
        </mxCell>
        <mxCell id="rTC_AdGIr1xHkLju1-tS-146" value=":IOController" style="shape=umlLifeline;perimeter=lifelinePerimeter;whiteSpace=wrap;html=1;container=0;dropTarget=0;collapsible=0;recursiveResize=0;outlineConnect=0;portConstraint=eastwest;newEdgeStyle={&quot;edgeStyle&quot;:&quot;elbowEdgeStyle&quot;,&quot;elbow&quot;:&quot;vertical&quot;,&quot;curved&quot;:0,&quot;rounded&quot;:0};" vertex="1" parent="1">
          <mxGeometry x="460" y="2367.5" width="160" height="942.5" as="geometry" />
        </mxCell>
        <mxCell id="rTC_AdGIr1xHkLju1-tS-147" value="" style="html=1;points=[];perimeter=orthogonalPerimeter;outlineConnect=0;targetShapes=umlLifeline;portConstraint=eastwest;newEdgeStyle={&quot;edgeStyle&quot;:&quot;elbowEdgeStyle&quot;,&quot;elbow&quot;:&quot;vertical&quot;,&quot;curved&quot;:0,&quot;rounded&quot;:0};" vertex="1" parent="rTC_AdGIr1xHkLju1-tS-146">
          <mxGeometry x="75" y="492.5" width="10" height="55" as="geometry" />
        </mxCell>
        <mxCell id="rTC_AdGIr1xHkLju1-tS-148" value=":ApplicantRequestController" style="shape=umlLifeline;perimeter=lifelinePerimeter;whiteSpace=wrap;html=1;container=0;dropTarget=0;collapsible=0;recursiveResize=0;outlineConnect=0;portConstraint=eastwest;newEdgeStyle={&quot;edgeStyle&quot;:&quot;elbowEdgeStyle&quot;,&quot;elbow&quot;:&quot;vertical&quot;,&quot;curved&quot;:0,&quot;rounded&quot;:0};" vertex="1" parent="1">
          <mxGeometry x="810" y="2365" width="160" height="955" as="geometry" />
        </mxCell>
        <mxCell id="rTC_AdGIr1xHkLju1-tS-149" value="" style="html=1;points=[];perimeter=orthogonalPerimeter;outlineConnect=0;targetShapes=umlLifeline;portConstraint=eastwest;newEdgeStyle={&quot;edgeStyle&quot;:&quot;elbowEdgeStyle&quot;,&quot;elbow&quot;:&quot;vertical&quot;,&quot;curved&quot;:0,&quot;rounded&quot;:0};" vertex="1" parent="rTC_AdGIr1xHkLju1-tS-148">
          <mxGeometry x="75" y="788" width="10" height="55" as="geometry" />
        </mxCell>
        <mxCell id="rTC_AdGIr1xHkLju1-tS-150" value="ProjectList" style="shape=umlLifeline;perimeter=lifelinePerimeter;whiteSpace=wrap;html=1;container=0;dropTarget=0;collapsible=0;recursiveResize=0;outlineConnect=0;portConstraint=eastwest;newEdgeStyle={&quot;edgeStyle&quot;:&quot;elbowEdgeStyle&quot;,&quot;elbow&quot;:&quot;vertical&quot;,&quot;curved&quot;:0,&quot;rounded&quot;:0};" vertex="1" parent="1">
          <mxGeometry x="640" y="2366.25" width="160" height="943.75" as="geometry" />
        </mxCell>
        <mxCell id="rTC_AdGIr1xHkLju1-tS-151" value="" style="html=1;points=[];perimeter=orthogonalPerimeter;outlineConnect=0;targetShapes=umlLifeline;portConstraint=eastwest;newEdgeStyle={&quot;edgeStyle&quot;:&quot;elbowEdgeStyle&quot;,&quot;elbow&quot;:&quot;vertical&quot;,&quot;curved&quot;:0,&quot;rounded&quot;:0};" vertex="1" parent="rTC_AdGIr1xHkLju1-tS-150">
          <mxGeometry x="75" y="558.13" width="10" height="126.25" as="geometry" />
        </mxCell>
        <mxCell id="rTC_AdGIr1xHkLju1-tS-152" value="" style="html=1;verticalAlign=bottom;labelBackgroundColor=none;endArrow=open;endFill=0;dashed=1;rounded=0;" edge="1" parent="1">
          <mxGeometry width="160" relative="1" as="geometry">
            <mxPoint x="-145" y="2520" as="sourcePoint" />
            <mxPoint x="-305" y="2520" as="targetPoint" />
          </mxGeometry>
        </mxCell>
        <mxCell id="rTC_AdGIr1xHkLju1-tS-153" value="userID" style="edgeLabel;html=1;align=center;verticalAlign=middle;resizable=0;points=[];" vertex="1" connectable="0" parent="rTC_AdGIr1xHkLju1-tS-152">
          <mxGeometry x="0.1177" y="1" relative="1" as="geometry">
            <mxPoint x="14" y="-11" as="offset" />
          </mxGeometry>
        </mxCell>
        <mxCell id="rTC_AdGIr1xHkLju1-tS-154" value="getInstance()" style="html=1;verticalAlign=bottom;endArrow=block;edgeStyle=elbowEdgeStyle;elbow=horizontal;curved=0;rounded=0;" edge="1" parent="1" source="rTC_AdGIr1xHkLju1-tS-137" target="rTC_AdGIr1xHkLju1-tS-130">
          <mxGeometry relative="1" as="geometry">
            <mxPoint x="-250" y="2590" as="sourcePoint" />
            <Array as="points">
              <mxPoint x="-205" y="2590" />
              <mxPoint x="115" y="2570" />
              <mxPoint x="-230" y="2580" />
            </Array>
            <mxPoint x="-220" y="2590" as="targetPoint" />
            <mxPoint as="offset" />
          </mxGeometry>
        </mxCell>
        <mxCell id="rTC_AdGIr1xHkLju1-tS-155" value="" style="html=1;verticalAlign=bottom;labelBackgroundColor=none;endArrow=open;endFill=0;dashed=1;rounded=0;" edge="1" parent="1">
          <mxGeometry width="160" relative="1" as="geometry">
            <mxPoint x="25" y="2630" as="sourcePoint" />
            <mxPoint x="-305" y="2630" as="targetPoint" />
          </mxGeometry>
        </mxCell>
        <mxCell id="rTC_AdGIr1xHkLju1-tS-156" value="Instance of Applicant list" style="edgeLabel;html=1;align=center;verticalAlign=middle;resizable=0;points=[];" vertex="1" connectable="0" parent="rTC_AdGIr1xHkLju1-tS-155">
          <mxGeometry x="0.1177" y="1" relative="1" as="geometry">
            <mxPoint x="14" y="-11" as="offset" />
          </mxGeometry>
        </mxCell>
        <mxCell id="rTC_AdGIr1xHkLju1-tS-157" value="getByID(userID)" style="html=1;verticalAlign=bottom;endArrow=block;edgeStyle=elbowEdgeStyle;elbow=horizontal;curved=0;rounded=0;" edge="1" parent="1">
          <mxGeometry relative="1" as="geometry">
            <mxPoint x="-305" y="2660" as="sourcePoint" />
            <Array as="points">
              <mxPoint x="-205" y="2660" />
              <mxPoint x="115" y="2640" />
              <mxPoint x="-230" y="2650" />
            </Array>
            <mxPoint x="25" y="2660" as="targetPoint" />
            <mxPoint as="offset" />
          </mxGeometry>
        </mxCell>
        <mxCell id="rTC_AdGIr1xHkLju1-tS-158" value="" style="html=1;verticalAlign=bottom;labelBackgroundColor=none;endArrow=open;endFill=0;dashed=1;rounded=0;" edge="1" parent="1">
          <mxGeometry width="160" relative="1" as="geometry">
            <mxPoint x="25" y="2690" as="sourcePoint" />
            <mxPoint x="-305" y="2690" as="targetPoint" />
          </mxGeometry>
        </mxCell>
        <mxCell id="rTC_AdGIr1xHkLju1-tS-159" value="applicant" style="edgeLabel;html=1;align=center;verticalAlign=middle;resizable=0;points=[];" vertex="1" connectable="0" parent="rTC_AdGIr1xHkLju1-tS-158">
          <mxGeometry x="0.1177" y="1" relative="1" as="geometry">
            <mxPoint x="14" y="-11" as="offset" />
          </mxGeometry>
        </mxCell>
        <mxCell id="rTC_AdGIr1xHkLju1-tS-160" value="alt" style="shape=umlFrame;whiteSpace=wrap;html=1;pointerEvents=0;" vertex="1" parent="1">
          <mxGeometry x="-355" y="2760" width="775" height="90" as="geometry" />
        </mxCell>
        <mxCell id="rTC_AdGIr1xHkLju1-tS-161" value="[Already has a project]" style="text;html=1;align=center;verticalAlign=middle;resizable=0;points=[];autosize=1;strokeColor=none;fillColor=none;labelBackgroundColor=default;" vertex="1" parent="1">
          <mxGeometry x="-300" y="2760" width="140" height="30" as="geometry" />
        </mxCell>
        <mxCell id="rTC_AdGIr1xHkLju1-tS-162" value="" style="html=1;points=[];perimeter=orthogonalPerimeter;outlineConnect=0;targetShapes=umlLifeline;portConstraint=eastwest;newEdgeStyle={&quot;edgeStyle&quot;:&quot;elbowEdgeStyle&quot;,&quot;elbow&quot;:&quot;vertical&quot;,&quot;curved&quot;:0,&quot;rounded&quot;:0};" vertex="1" parent="1">
          <mxGeometry x="195" y="2710" width="10" height="40" as="geometry" />
        </mxCell>
        <mxCell id="rTC_AdGIr1xHkLju1-tS-163" value="getProject()" style="html=1;verticalAlign=bottom;endArrow=block;edgeStyle=elbowEdgeStyle;elbow=horizontal;curved=0;rounded=0;" edge="1" parent="1" target="rTC_AdGIr1xHkLju1-tS-162">
          <mxGeometry relative="1" as="geometry">
            <mxPoint x="-305" y="2730" as="sourcePoint" />
            <Array as="points">
              <mxPoint x="-205" y="2730" />
              <mxPoint x="115" y="2710" />
              <mxPoint x="-230" y="2720" />
            </Array>
            <mxPoint x="25" y="2730" as="targetPoint" />
            <mxPoint as="offset" />
          </mxGeometry>
        </mxCell>
        <mxCell id="rTC_AdGIr1xHkLju1-tS-164" value="loopOfficer()" style="html=1;verticalAlign=bottom;endArrow=block;edgeStyle=elbowEdgeStyle;elbow=horizontal;curved=0;rounded=0;" edge="1" parent="1" source="rTC_AdGIr1xHkLju1-tS-137" target="rTC_AdGIr1xHkLju1-tS-140">
          <mxGeometry relative="1" as="geometry">
            <mxPoint x="-300" y="2800" as="sourcePoint" />
            <Array as="points">
              <mxPoint x="-202.5" y="2800" />
              <mxPoint x="117.5" y="2780" />
              <mxPoint x="-227.5" y="2790" />
            </Array>
            <mxPoint x="350" y="2800" as="targetPoint" />
            <mxPoint as="offset" />
          </mxGeometry>
        </mxCell>
        <mxCell id="rTC_AdGIr1xHkLju1-tS-165" style="edgeStyle=elbowEdgeStyle;rounded=0;orthogonalLoop=1;jettySize=auto;html=1;elbow=horizontal;curved=0;" edge="1" parent="1">
          <mxGeometry relative="1" as="geometry">
            <mxPoint x="357.5" y="2826.9983870967744" as="sourcePoint" />
            <mxPoint x="-305" y="2826.9983870967744" as="targetPoint" />
          </mxGeometry>
        </mxCell>
        <mxCell id="rTC_AdGIr1xHkLju1-tS-166" value="allOption()" style="edgeLabel;html=1;align=center;verticalAlign=middle;resizable=0;points=[];" vertex="1" connectable="0" parent="rTC_AdGIr1xHkLju1-tS-165">
          <mxGeometry x="-0.0216" y="-1" relative="1" as="geometry">
            <mxPoint x="-8" y="-8" as="offset" />
          </mxGeometry>
        </mxCell>
        <mxCell id="rTC_AdGIr1xHkLju1-tS-167" value="prompts projectID" style="html=1;verticalAlign=bottom;endArrow=block;edgeStyle=elbowEdgeStyle;elbow=vertical;curved=0;rounded=0;" edge="1" parent="1">
          <mxGeometry x="0.0105" relative="1" as="geometry">
            <mxPoint x="-490" y="2879" as="sourcePoint" />
            <Array as="points">
              <mxPoint x="-435" y="2879" />
            </Array>
            <mxPoint x="-315" y="2879" as="targetPoint" />
            <mxPoint as="offset" />
          </mxGeometry>
        </mxCell>
        <mxCell id="rTC_AdGIr1xHkLju1-tS-168" value="nextLine()" style="html=1;verticalAlign=bottom;endArrow=block;edgeStyle=elbowEdgeStyle;elbow=vertical;curved=0;rounded=0;" edge="1" parent="1">
          <mxGeometry relative="1" as="geometry">
            <mxPoint x="-305" y="2879" as="sourcePoint" />
            <Array as="points">
              <mxPoint x="-120" y="2879" />
              <mxPoint x="200" y="2859" />
              <mxPoint x="-145" y="2869" />
            </Array>
            <mxPoint x="535" y="2879" as="targetPoint" />
            <mxPoint as="offset" />
          </mxGeometry>
        </mxCell>
        <mxCell id="rTC_AdGIr1xHkLju1-tS-169" value="" style="html=1;verticalAlign=bottom;labelBackgroundColor=none;endArrow=open;endFill=0;dashed=1;rounded=0;" edge="1" parent="1">
          <mxGeometry width="160" relative="1" as="geometry">
            <mxPoint x="535" y="2905.5" as="sourcePoint" />
            <mxPoint x="-305" y="2905.5" as="targetPoint" />
          </mxGeometry>
        </mxCell>
        <mxCell id="rTC_AdGIr1xHkLju1-tS-170" value="projectID" style="edgeLabel;html=1;align=center;verticalAlign=middle;resizable=0;points=[];" vertex="1" connectable="0" parent="rTC_AdGIr1xHkLju1-tS-169">
          <mxGeometry x="0.1177" y="1" relative="1" as="geometry">
            <mxPoint x="45" y="-11" as="offset" />
          </mxGeometry>
        </mxCell>
        <mxCell id="rTC_AdGIr1xHkLju1-tS-171" value="getInstance()" style="html=1;verticalAlign=bottom;endArrow=block;edgeStyle=elbowEdgeStyle;elbow=horizontal;curved=0;rounded=0;" edge="1" parent="1" target="rTC_AdGIr1xHkLju1-tS-151">
          <mxGeometry relative="1" as="geometry">
            <mxPoint x="-305" y="2940" as="sourcePoint" />
            <Array as="points">
              <mxPoint x="-205" y="2940" />
              <mxPoint x="115" y="2920" />
              <mxPoint x="-230" y="2930" />
            </Array>
            <mxPoint x="25" y="2940" as="targetPoint" />
            <mxPoint as="offset" />
          </mxGeometry>
        </mxCell>
        <mxCell id="rTC_AdGIr1xHkLju1-tS-172" value="" style="html=1;verticalAlign=bottom;labelBackgroundColor=none;endArrow=open;endFill=0;dashed=1;rounded=0;" edge="1" parent="1">
          <mxGeometry width="160" relative="1" as="geometry">
            <mxPoint x="715.0000000000005" y="2975" as="sourcePoint" />
            <mxPoint x="-305" y="2975" as="targetPoint" />
          </mxGeometry>
        </mxCell>
        <mxCell id="rTC_AdGIr1xHkLju1-tS-173" value="Instance of Projectlist" style="edgeLabel;html=1;align=center;verticalAlign=middle;resizable=0;points=[];" vertex="1" connectable="0" parent="rTC_AdGIr1xHkLju1-tS-172">
          <mxGeometry x="0.1177" y="1" relative="1" as="geometry">
            <mxPoint x="55" y="-11" as="offset" />
          </mxGeometry>
        </mxCell>
        <mxCell id="rTC_AdGIr1xHkLju1-tS-174" value="getByID(userID)" style="html=1;verticalAlign=bottom;endArrow=block;edgeStyle=elbowEdgeStyle;elbow=horizontal;curved=0;rounded=0;" edge="1" parent="1" target="rTC_AdGIr1xHkLju1-tS-151">
          <mxGeometry relative="1" as="geometry">
            <mxPoint x="-305" y="3010" as="sourcePoint" />
            <Array as="points">
              <mxPoint x="-205" y="3010" />
              <mxPoint x="115" y="2990" />
              <mxPoint x="-230" y="3000" />
            </Array>
            <mxPoint x="25" y="3010" as="targetPoint" />
            <mxPoint as="offset" />
          </mxGeometry>
        </mxCell>
        <mxCell id="rTC_AdGIr1xHkLju1-tS-175" value="" style="html=1;verticalAlign=bottom;labelBackgroundColor=none;endArrow=open;endFill=0;dashed=1;rounded=0;" edge="1" parent="1" source="rTC_AdGIr1xHkLju1-tS-151">
          <mxGeometry width="160" relative="1" as="geometry">
            <mxPoint x="25" y="3040" as="sourcePoint" />
            <mxPoint x="-305" y="3040" as="targetPoint" />
          </mxGeometry>
        </mxCell>
        <mxCell id="rTC_AdGIr1xHkLju1-tS-176" value="Project" style="edgeLabel;html=1;align=center;verticalAlign=middle;resizable=0;points=[];" vertex="1" connectable="0" parent="rTC_AdGIr1xHkLju1-tS-175">
          <mxGeometry x="0.1177" y="1" relative="1" as="geometry">
            <mxPoint x="55" y="-11" as="offset" />
          </mxGeometry>
        </mxCell>
        <mxCell id="rTC_AdGIr1xHkLju1-tS-177" value="alt" style="shape=umlFrame;whiteSpace=wrap;html=1;pointerEvents=0;" vertex="1" parent="1">
          <mxGeometry x="-350" y="3060" width="1320" height="160" as="geometry" />
        </mxCell>
        <mxCell id="rTC_AdGIr1xHkLju1-tS-178" value="[ProjectID is exist and user is eligible to apply the project]" style="text;html=1;align=center;verticalAlign=middle;resizable=0;points=[];autosize=1;strokeColor=none;fillColor=none;labelBackgroundColor=default;" vertex="1" parent="1">
          <mxGeometry x="-300" y="3060" width="330" height="30" as="geometry" />
        </mxCell>
        <mxCell id="rTC_AdGIr1xHkLju1-tS-179" value="" style="html=1;points=[];perimeter=orthogonalPerimeter;outlineConnect=0;targetShapes=umlLifeline;portConstraint=eastwest;newEdgeStyle={&quot;edgeStyle&quot;:&quot;elbowEdgeStyle&quot;,&quot;elbow&quot;:&quot;vertical&quot;,&quot;curved&quot;:0,&quot;rounded&quot;:0};" vertex="1" parent="1">
          <mxGeometry x="535" y="3090" width="10" height="55" as="geometry" />
        </mxCell>
        <mxCell id="rTC_AdGIr1xHkLju1-tS-180" value="nextInt()" style="html=1;verticalAlign=bottom;endArrow=block;edgeStyle=elbowEdgeStyle;elbow=horizontal;curved=0;rounded=0;" edge="1" parent="1" source="rTC_AdGIr1xHkLju1-tS-137" target="rTC_AdGIr1xHkLju1-tS-179">
          <mxGeometry relative="1" as="geometry">
            <mxPoint x="-303" y="3110" as="sourcePoint" />
            <Array as="points">
              <mxPoint x="-200.5" y="3110" />
              <mxPoint x="119.5" y="3090" />
              <mxPoint x="-225.5" y="3100" />
            </Array>
            <mxPoint x="360" y="3110" as="targetPoint" />
            <mxPoint as="offset" />
          </mxGeometry>
        </mxCell>
        <mxCell id="rTC_AdGIr1xHkLju1-tS-181" value="" style="html=1;verticalAlign=bottom;labelBackgroundColor=none;endArrow=open;endFill=0;dashed=1;rounded=0;" edge="1" parent="1">
          <mxGeometry width="160" relative="1" as="geometry">
            <mxPoint x="535" y="3130" as="sourcePoint" />
            <mxPoint x="-305" y="3130" as="targetPoint" />
          </mxGeometry>
        </mxCell>
        <mxCell id="rTC_AdGIr1xHkLju1-tS-182" value="applyFlat" style="edgeLabel;html=1;align=center;verticalAlign=middle;resizable=0;points=[];" vertex="1" connectable="0" parent="rTC_AdGIr1xHkLju1-tS-181">
          <mxGeometry x="0.1177" y="1" relative="1" as="geometry">
            <mxPoint x="45" y="-11" as="offset" />
          </mxGeometry>
        </mxCell>
        <mxCell id="rTC_AdGIr1xHkLju1-tS-183" value="prompts flat type" style="html=1;verticalAlign=bottom;endArrow=block;edgeStyle=elbowEdgeStyle;elbow=vertical;curved=0;rounded=0;" edge="1" parent="1">
          <mxGeometry x="0.0105" relative="1" as="geometry">
            <mxPoint x="-490" y="3109.4700000000003" as="sourcePoint" />
            <Array as="points">
              <mxPoint x="-435" y="3109.4700000000003" />
            </Array>
            <mxPoint x="-315" y="3109.4700000000003" as="targetPoint" />
            <mxPoint as="offset" />
          </mxGeometry>
        </mxCell>
        <mxCell id="rTC_AdGIr1xHkLju1-tS-184" value="applyProject(projectID, applyFlat)" style="html=1;verticalAlign=bottom;endArrow=block;edgeStyle=elbowEdgeStyle;elbow=horizontal;curved=0;rounded=0;" edge="1" parent="1" target="rTC_AdGIr1xHkLju1-tS-149">
          <mxGeometry relative="1" as="geometry">
            <mxPoint x="-305" y="3180" as="sourcePoint" />
            <Array as="points">
              <mxPoint x="-200.5" y="3180" />
              <mxPoint x="119.5" y="3160" />
              <mxPoint x="-225.5" y="3170" />
            </Array>
            <mxPoint x="535" y="3180" as="targetPoint" />
            <mxPoint as="offset" />
          </mxGeometry>
        </mxCell>
      </root>
    </mxGraphModel>
  </diagram>
</mxfile>
